<?xml version="1.0" standalone="no"?>
<!DOCTYPE svg PUBLIC "-//W3C//DTD SVG 1.1//EN" "http://www.w3.org/Graphics/SVG/1.1/DTD/svg11.dtd" >
<svg xmlns="http://www.w3.org/2000/svg" xmlns:xlink="http://www.w3.org/1999/xlink" version="1.1">
<metadata>
Created by FontForge 20170731 at Tue Feb 19 15:08:22 2013
 By Aleksey,,,
An initiative by Access to Information (A2I) Programme in association with Bangla Academy and Department of Graphic Design, University of Dhaka. Lead Designer: Maksud Rahman. Designer: Muhammad Nazimuddaula, Tirana Khan. Developer: Tanbin Islam Siyam
</metadata>
<defs>
<font id="ABShaplaBeta" horiz-adv-x="0" >
  <font-face 
    font-family="ABShaplaBeta"
    font-weight="400"
    font-stretch="normal"
    units-per-em="1000"
    panose-1="2 0 5 0 0 0 0 2 0 4"
    ascent="800"
    descent="-200"
    bbox="-510 -284 1252 1067"
    underline-thickness="20"
    underline-position="-337"
    unicode-range="U+0020-25CC"
  />
<missing-glyph horiz-adv-x="672" 
d="M102 678h465v-678h-465v678zM507 60v558h-344v-558h344z" />
    <glyph glyph-name=".notdef" horiz-adv-x="672" 
d="M102 678h465v-678h-465v678zM507 60v558h-344v-558h344z" />
    <glyph glyph-name=".null" 
 />
    <glyph glyph-name="nonmarkingreturn" horiz-adv-x="333" 
 />
    <glyph glyph-name="space" unicode=" " horiz-adv-x="364" 
 />
    <glyph glyph-name="exclam" unicode="!" horiz-adv-x="294" 
d="M149 119q25 0 42.5 -17.5t17.5 -42.5t-17.5 -42.5t-42.5 -17.5t-42.5 17.5t-17.5 42.5t17.5 42.5t42.5 17.5zM132 224q-7 114 -11 209q-2 40 -3.5 81t-3 75.5t-2.5 60t-1 36.5q0 63 38 63q20 0 28.5 -15.5t8.5 -47.5q0 -14 -1 -42t-2.5 -65t-4 -79.5t-4.5 -84.5
q-5 -99 -12 -216z" />
    <glyph glyph-name="quotedbl" unicode="&#x22;" horiz-adv-x="364" 
d="M272 552l-30 26q-7 41 -11 79q-4 32 -7 66t-3 56q0 32 8.5 42.5t29.5 10.5q20 0 28.5 -10.5t8.5 -42.5q0 -28 -3.5 -66.5t-8.5 -74.5q-5 -42 -12 -86zM119 552l-30 26q-7 41 -11 79q-4 32 -7 66t-3 56q0 32 8.5 42.5t29.5 10.5q20 0 28.5 -10.5t8.5 -42.5
q0 -28 -3.5 -66.5t-8.5 -74.5q-5 -42 -12 -86z" />
    <glyph glyph-name="numbersign" unicode="#" horiz-adv-x="774" 
d="M687 488h-137l-35 -225h172v-45h-179l-40 -261h-45l40 261h-221l-40 -261h-45l40 261h-130v45h137l34 225h-171v45h178l40 260h46l-40 -260h220l40 260h46l-40 -260h130v-45zM470 263l34 225h-220l-35 -225h221z" />
    <glyph glyph-name="dollar" unicode="$" horiz-adv-x="833" 
d="M580 205q0 -45 -10 -81.5t-33.5 -62.5t-62 -41.5t-95.5 -18.5v-106h-24q-36 0 -36 38v68q-55 3 -93.5 15.5t-62.5 33.5t-35 50t-11 64h72q0 -39 13 -62.5t35.5 -37t52.5 -18t64 -4.5q75 0 114 38t39 101q0 22 -1 42.5t-7.5 38t-19.5 32t-37 25.5q-15 6 -37.5 16.5
t-50 22.5t-59 26t-62.5 28q-63 27 -88.5 63.5t-25.5 95.5q0 49 16.5 82t44.5 53.5t64 30.5t75 12v106h23q37 0 37 -38v-68q29 -2 59.5 -9t56 -20.5t42 -35.5t16.5 -54h-73q0 21 -11 35.5t-30.5 23.5t-46 13t-57.5 4q-81 0 -116 -27.5t-35 -89.5q0 -24 4.5 -39.5t13 -26
t21.5 -19t30 -19.5l23 -11.5t43 -20t58 -25t68 -28.5q35 -15 60.5 -32t42 -39.5t24.5 -52.5t8 -71z" />
    <glyph glyph-name="percent" unicode="%" horiz-adv-x="757" 
d="M364 581q0 -49 -13.5 -79.5t-35 -48t-48 -24t-51.5 -6.5t-51 6.5t-47.5 24t-35 48t-13.5 79.5q0 76 36 115q37 42 111 42q25 0 51.5 -6.5t48 -23.5t35 -47.5t13.5 -79.5zM138 495q24 -27 78 -27q53 0 79 27q24 27 24 86q0 58 -24 85q-26 27 -79 27q-54 0 -78 -27t-24 -85
q0 -59 24 -86zM535 327q25 0 51.5 -6.5t48 -23.5t35 -47.5t13.5 -79.5t-13.5 -80t-35 -48t-48 -23.5t-51.5 -6.5t-51 6.5t-47.5 23.5t-35 48t-13.5 80t13.5 79.5t35 47.5t47.5 23.5t51 6.5zM614 84q24 27 24 86q0 58 -24 85q-26 27 -79 27q-54 0 -78 -27t-24 -85
q0 -59 24 -86t78 -27q53 0 79 27zM628 775l-452 -800h-52l452 800h52z" />
    <glyph glyph-name="ampersand" unicode="&#x26;" horiz-adv-x="757" 
d="M550 205q0 -15 -1 -33.5t-3 -32.5l139 -139h-29q-17 0 -28.5 -0.5t-21.5 2.5t-21 11.5t-29 26.5q-15 14 -22.5 22t-10.5 12l-4 4q-26 -38 -73.5 -58t-125.5 -20q-69 0 -117.5 14t-79 39.5t-44.5 61t-14 77.5q0 45 5.5 76.5t19.5 55.5t38 43.5t60 40.5l-55 55
q-26 26 -35 54t-9 54q0 51 20 85t53 55t74.5 30t84.5 9q30 0 62 -6t58 -19.5t43 -37t17 -57.5h-51q0 20 -11.5 34.5t-31.5 23.5t-46.5 13.5t-56.5 4.5q-81 0 -118 -27.5t-37 -89.5q0 -27 16.5 -56.5t55.5 -68.5l256 -256v209q20 0 36 -8q14 -7 25.5 -21.5t11.5 -42.5v-140z
M324 42q28 0 54.5 8t46 21t31.5 28t12 29l-251 251q-32 -16 -48.5 -36t-24 -43t-8.5 -48t-1 -52q0 -44 15 -74t41 -49t60 -27t73 -8z" />
    <glyph glyph-name="quotesingle" unicode="'" horiz-adv-x="220" 
d="M119 552l-30 26q-7 41 -11 79q-4 32 -7 66t-3 56q0 32 8.5 42.5t29.5 10.5q20 0 28.5 -10.5t8.5 -42.5q0 -28 -3.5 -66.5t-8.5 -74.5q-5 -42 -12 -86z" />
    <glyph glyph-name="parenleft" unicode="(" horiz-adv-x="453" 
d="M390 -175h-43q-17 0 -45.5 14t-61 39.5t-63 60t-51.5 75.5q-19 36 -30.5 80.5t-18 92.5t-9 96t-2.5 92t2.5 92t9 96t18 92.5t30.5 81.5q21 40 52.5 74.5t64.5 60t61.5 39.5t42.5 14h43q-33 -17 -63 -34.5t-56.5 -39.5t-48.5 -50t-39 -67q-16 -36 -25 -80t-14 -92
t-6.5 -96t-1.5 -91t1.5 -91t6.5 -95.5t14 -92t25 -79.5q17 -39 39 -67.5t48.5 -50.5t56.5 -39.5t63 -34.5z" />
    <glyph glyph-name="parenright" unicode=")" horiz-adv-x="476" 
d="M69 925h43q16 0 45 -14t61.5 -39.5t63.5 -60t52 -74.5q18 -37 29.5 -81.5t18 -92.5t9 -96t2.5 -92t-2.5 -92t-9 -96t-18 -92.5t-29.5 -80.5q-21 -41 -53 -75.5t-65 -60t-61.5 -39.5t-42.5 -14h-43q33 17 63.5 34.5t56.5 39.5t48 50.5t39 67.5q16 35 25.5 79.5t14.5 92
t6.5 95.5t1.5 91t-1.5 91t-6.5 96t-14.5 92t-25.5 80q-17 39 -39 67t-48 50t-56.5 39.5t-63.5 34.5z" />
    <glyph glyph-name="asterisk" unicode="*" horiz-adv-x="641" 
d="M528 704q4 -3 11.5 -8.5t13.5 -13.5t8 -18t-4 -20q-6 -11 -15.5 -14t-19 -2t-18.5 4.5t-13 6.5q-17 9 -34 23t-43 37q-20 17 -45.5 36t-44.5 32q2 -23 5.5 -55t8.5 -59q6 -34 9 -55t3 -41q0 -5 -1 -14t-5 -18t-11.5 -16t-19.5 -7t-19.5 7t-11.5 16t-5.5 18t-1.5 14
q0 19 3.5 40.5t10.5 56.5q5 26 8.5 57.5t5.5 54.5q-19 -13 -45 -32t-47 -37q-26 -22 -42.5 -35t-33.5 -23q-5 -3 -13.5 -6.5t-18.5 -4.5t-19.5 2t-15.5 14q-6 10 -4 20t8 18t13 13.5t12 8.5q17 9 37 17t54 19q25 8 54 21t50 23q-21 10 -50.5 23t-56.5 22q-32 11 -51.5 19
t-36.5 18q-5 3 -12 8.5t-13 13.5t-8 17.5t4 20.5t15.5 14t19.5 2t18.5 -4.5t13.5 -6.5q16 -10 33 -23.5t43 -36.5q20 -18 45.5 -36.5t45.5 -31.5q-2 23 -6 54.5t-9 59.5q-6 33 -9 54t-3 41q0 5 1.5 14.5t5.5 18.5t11.5 15.5t19.5 6.5t19.5 -6.5t11.5 -15.5t5 -18.5t1 -14.5
q0 -19 -3 -40t-11 -56q-5 -26 -8 -58t-5 -55q18 14 44 33t47 37q26 22 43 35t34 23q4 3 13 6.5t18.5 4.5t19 -2t15.5 -14t4 -20.5t-8 -17.5t-13.5 -13.5t-11.5 -8.5q-16 -9 -36.5 -17t-53.5 -19q-25 -8 -54 -21t-50 -24q20 -9 50 -22t56 -22q32 -11 51.5 -19t36.5 -18z" />
    <glyph glyph-name="plus" unicode="+" horiz-adv-x="734" 
d="M666 398v-45h-277v-278h-45v278h-278v45h278v277h45v-277h277z" />
    <glyph glyph-name="comma" unicode="," horiz-adv-x="346" 
d="M174 268q16 0 32 -5.5t29 -17.5t21 -31.5t8 -48.5v-7q0 -27 -10.5 -52t-28.5 -48.5t-41 -47t-47 -47.5q-6 -6 -10.5 -9t-11 -4t-15.5 -1h-24q38 38 63.5 64.5t40.5 46t21.5 34.5t6.5 30q0 4 -1 9q0 6 -3.5 6t-6.5 -2q-18 -13 -40 -13q-29 0 -48.5 19.5t-19.5 47.5
q0 31 20.5 54t53.5 23h11z" />
    <glyph glyph-name="hyphen" unicode="-" horiz-adv-x="453" 
d="M389 353h-323v45h323v-45z" />
    <glyph glyph-name="period" unicode="." horiz-adv-x="301" 
d="M148 119q25 0 42.5 -17.5t17.5 -42.5t-17.5 -42.5t-42.5 -17.5t-42.5 17.5t-17.5 42.5t17.5 42.5t42.5 17.5z" />
    <glyph glyph-name="slash" unicode="/" horiz-adv-x="596" 
d="M69 -125l391 1000h48l-391 -1000h-48z" />
    <glyph glyph-name="colon" unicode=":" horiz-adv-x="292" 
d="M156 423q-28 0 -47.5 19.5t-19.5 47.5t19.5 48t47.5 20q29 0 48.5 -20t19.5 -48t-19.5 -47.5t-48.5 -19.5zM156 243q29 0 48.5 -20t19.5 -48t-19.5 -47.5t-48.5 -19.5q-28 0 -47.5 19.5t-19.5 47.5t19.5 48t47.5 20z" />
    <glyph glyph-name="semicolon" unicode=";" horiz-adv-x="337" 
d="M173 268q16 0 32 -5.5t29 -17.5t21 -31.5t8 -48.5v-7q0 -27 -10.5 -52t-28.5 -48.5t-41 -47t-47 -47.5q-6 -6 -10.5 -9t-11 -4t-15.5 -1h-24q38 38 63.5 64.5t40.5 46t21.5 34.5t6.5 30q0 4 -1 9q0 6 -3.5 6t-6.5 -2q-18 -13 -40 -13q-29 0 -48.5 19.5t-19.5 47.5
q0 31 20.5 54t53.5 23h11zM156 423q-29 0 -48.5 19.5t-19.5 47.5t19.5 48t48.5 20q28 0 47.5 -20t19.5 -48t-19.5 -47.5t-47.5 -19.5z" />
    <glyph glyph-name="less" unicode="&#x3c;" horiz-adv-x="610" 
d="M517 703v-56q-33 -24 -71 -51.5t-76.5 -56t-76 -55.5t-68 -49.5t-52 -38t-29.5 -21.5q8 -6 29.5 -21.5t52 -37.5t68 -49.5t76 -56t77 -56t70.5 -51.5v-55l-450 327z" />
    <glyph glyph-name="equal" unicode="=" horiz-adv-x="833" 
d="M69 538h680v-45h-680v45zM69 213v45h680v-45h-680z" />
    <glyph glyph-name="greater" unicode="&#x3e;" horiz-adv-x="602" 
d="M519 375l-450 -327v55q33 24 71 51.5t77 56t76 56t68 49.5t52.5 37.5t29.5 21.5q-8 6 -29.5 21.5t-52.5 38t-68 49.5t-76 55.5t-77.5 56t-70.5 51.5v56z" />
    <glyph glyph-name="question" unicode="?" horiz-adv-x="456" 
d="M351 713q25 -22 39 -56.5t14 -85.5q0 -49 -12 -80t-32.5 -54t-48 -42.5t-58.5 -46.5q-12 -10 -24 -22t-21.5 -25.5t-15.5 -29.5t-6 -33v-50q-10 1 -18 6q-7 4 -12 12.5t-5 23.5v26q1 29 4 48.5t11.5 35t22.5 30t36 33.5q20 18 40 34.5t36.5 35.5t27 42.5t10.5 55.5
q0 35 -4 60t-16 41.5t-35 24.5t-60 8q-45 0 -68.5 -10t-23.5 -24q25 -4 41.5 -20t16.5 -42q0 -28 -19.5 -47.5t-48.5 -19.5q-28 0 -47.5 19.5t-19.5 57.5q0 41 18 66.5t44 40t55 19.5t52 5q86 0 127 -37zM174 120q25 0 42.5 -17.5t17.5 -42.5t-17.5 -42.5t-42.5 -17.5
t-42.5 17.5t-17.5 42.5t17.5 42.5t42.5 17.5z" />
    <glyph glyph-name="bracketleft" unicode="[" horiz-adv-x="280" 
d="M66 925h152v-40h-107v-1020h107v-40h-152v1100z" />
    <glyph glyph-name="backslash" unicode="\" horiz-adv-x="833" 
d="M558 -125h-48l-391 1000h48z" />
    <glyph glyph-name="bracketright" unicode="]" horiz-adv-x="289" 
d="M68 -175v40h107v1020h-107v40h152v-1100h-152z" />
    <glyph glyph-name="underscore" unicode="_" horiz-adv-x="602" 
d="M603 -45h-604v45h604v-45z" />
    <glyph glyph-name="grave" unicode="`" horiz-adv-x="319" 
d="M264 526q-11 -9 -27 -15l-172 184l10 20q5 1 14.5 3t20.5 4t21 3.5t16 1.5z" />
    <glyph glyph-name="braceleft" unicode="{" horiz-adv-x="504" 
d="M401 -157l15 -18h-59q-81 0 -115.5 55t-34.5 165v166q0 71 -23 109.5t-60 49.5q-6 2 -5.5 5t5.5 5q38 11 60.5 53.5t22.5 120.5v154q0 65 10 107t29.5 66.5t47 34t63.5 9.5h59l-15 -18q-75 0 -105 -59q-11 -20 -15 -51.5t-4 -75.5v-182q0 -26 -9.5 -52t-24.5 -48
t-34 -38.5t-38 -22.5q-4 -1 -4 -3t4 -3q19 -6 38 -22t34 -38t24.5 -48.5t9.5 -52.5v-182q0 -43 4 -75t15 -52q30 -59 105 -59z" />
    <glyph glyph-name="bar" unicode="|" horiz-adv-x="202" 
d="M125 1h-45v749h45v-749z" />
    <glyph glyph-name="braceright" unicode="}" horiz-adv-x="538" 
d="M133 907l-15 18h59q81 0 116 -54.5t35 -165.5v-166q0 -71 22.5 -109.5t60.5 -49.5q5 -2 5 -5t-5 -5q-38 -11 -60.5 -53.5t-22.5 -120.5v-153q0 -65 -10 -107.5t-29.5 -67t-47.5 -34t-64 -9.5h-59l15 18q75 0 105 59q11 20 15 52t4 75v182q0 26 9.5 52.5t24.5 48.5t34 38
t38 22q4 1 4 3t-3 4q-19 6 -38 22t-34.5 38t-25 48t-9.5 52v182q0 44 -4 75.5t-15 52.5q-30 58 -105 58z" />
    <glyph glyph-name="asciitilde" unicode="~" horiz-adv-x="833" 
d="M679 480l-24 -41q-17 -30 -43 -49t-56.5 -27.5t-63 -4.5t-61.5 21l-75 43q-21 12 -44.5 15t-46 -3t-41.5 -20.5t-31 -35.5l-10 -17h-52l23 40q34 59 100 76q65 18 124 -16l75 -43q21 -12 44.5 -15t46 3t41.5 20t31 35l11 19h52z" />
    <glyph glyph-name="bn_dari" unicode="&#x964;" horiz-adv-x="416" 
d="M290 694q20 0 32.5 -12t12.5 -33v-590q-21 0 -33 12.5t-12 32.5v590v0z" />
    <glyph glyph-name="bn_double_dari" unicode="&#x965;" horiz-adv-x="688" 
d="M413 135q14 -3 21.5 -14t7.5 -26q0 -17 -11.5 -29t-28.5 -12q-19 0 -30.5 13t-11.5 40v495q0 9 -9 11q-14 3 -23 14t-9 26q0 17 11.5 29t28.5 12q18 0 31.5 -13t13.5 -40v-494q0 -11 9 -12zM570 135q14 -3 21.5 -14t7.5 -26q0 -17 -11 -29t-28 -12q-20 0 -31.5 13
t-11.5 40v495q0 9 -9 11q-14 3 -23 14t-9 26q0 17 11.5 29t28.5 12q19 0 32 -13t13 -40v-494q0 -10 9 -12z" />
    <glyph glyph-name="u0981" unicode="&#x981;" 
d="M-2 974q0 -60 -10.5 -94t-30 -50.5t-46.5 -20.5t-61 -4q-36 0 -62 14.5t-46 38t-35 53.5t-28 62q-8 20 -11.5 28.5t-8.5 20.5q6 0 17 -3t18 -18q13 -30 28 -55.5t33.5 -44t41.5 -29t53 -10.5q45 0 68.5 8.5t33.5 26.5t11 45t1 64zM-102 970q0 -21 -15 -36t-37 -15
q-21 0 -36 15t-15 36q0 22 15 37t36 15q22 0 37 -15t15 -37z" />
    <glyph glyph-name="u0982" unicode="&#x982;" horiz-adv-x="522" 
d="M256 447q-155 0 -155 151q0 152 155 152q154 0 154 -152q0 -151 -154 -151zM256 705q-30 0 -48 -6t-28 -18.5t-13.5 -33t-3.5 -49.5t3.5 -49.5t13.5 -33.5t28 -18.5t48 -5.5q29 0 47 5.5t28 18.5t13.5 33.5t3.5 49.5t-3.5 49.5t-13.5 33t-28 18.5t-47 6zM525 0h-26
q-6 0 -15.5 3t-20.5 14q-8 8 -22.5 22t-33 32.5t-41 39.5t-44.5 42q-45 42 -81 69.5t-63.5 44t-47 23t-29.5 6.5v82q24 -10 49.5 -26.5t48 -34t40 -33t25.5 -23.5z" />
    <glyph glyph-name="u0983" unicode="&#x983;" horiz-adv-x="506" 
d="M101 598q0 152 154 152t154 -152q0 -151 -154 -151t-154 151zM163 598q0 -29 3.5 -49.5t13.5 -33.5t28 -18.5t47 -5.5t47 5.5t28 18.5t13.5 33.5t3.5 49.5t-3.5 49.5t-13.5 33t-28 18.5t-47 6t-47 -6t-28 -18.5t-13.5 -33t-3.5 -49.5zM101 194q0 152 154 152t154 -152
q0 -153 -154 -153t-154 153zM163 194q0 -29 3.5 -49.5t13.5 -33.5t28 -18.5t47 -5.5t47 5.5t28 18.5t13.5 33.5t3.5 49.5t-3.5 49t-13.5 33t-28 18.5t-47 5.5t-47 -5.5t-28 -18.5t-13.5 -33t-3.5 -49z" />
    <glyph glyph-name="u0985" unicode="&#x985;" horiz-adv-x="866" 
d="M881 705h-130v-705q-21 0 -33 12.5t-12 32.5v41q0 21 -4 38t-14 33.5t-25.5 34t-38.5 40.5q-14 13 -19 18t-7 7.5t-4 4.5l-8 8q-11 11 -27 13q-16 -27 -38.5 -42.5t-47 -23.5t-49.5 -10t-46 -2q-47 0 -83 17t-64 46t-49 67.5t-39 80.5q-9 22 -16 40.5t-16 45t-22.5 66
t-35.5 102.5h8.5t11.5 -1.5t12 -6t9 -12.5q13 -35 22.5 -60t20.5 -53q24 -59 46 -106.5t49 -81t62 -51.5t84 -18q89 0 124.5 36t35.5 102v73q0 39 -10 63.5t-26 38t-37 18t-42 4.5q-24 0 -38 -3.5t-21 -6.5q-8 -5 -14 -11.5t-6 -15.5q27 0 45 -14.5t18 -44.5t-18.5 -47.5
t-49.5 -17.5q-28 0 -47.5 21t-19.5 54v17q0 43 35 75t107 32q36 0 67.5 -9t55 -28.5t37.5 -50.5t14 -74v-80q0 -26 -3 -47.5t-8 -39.5q15 -16 34 -35t39 -38q16 -17 30 -32t26 -31v517h-715v45h890v-45z" />
    <glyph glyph-name="u0986" unicode="&#x986;" horiz-adv-x="1145" 
d="M881 705h-130v-705q-21 0 -33 12.5t-12 32.5v41q0 21 -4 38t-14 33.5t-25.5 34t-38.5 40.5q-14 13 -19 18t-7 7.5t-4 4.5l-8 8q-11 11 -27 13q-16 -27 -38.5 -42.5t-47 -23.5t-49.5 -10t-46 -2q-47 0 -83 17t-64 46t-49 67.5t-39 80.5q-9 22 -16 40.5t-16 45t-22.5 66
t-35.5 102.5h8.5t11.5 -1.5t12 -6t9 -12.5q13 -35 22.5 -60t20.5 -53q24 -59 46 -106.5t49 -81t62 -51.5t84 -18q89 0 124.5 36t35.5 102v73q0 39 -10 63.5t-26 38t-37 18t-42 4.5q-24 0 -38 -3.5t-21 -6.5q-8 -5 -14 -11.5t-6 -15.5q27 0 45 -14.5t18 -44.5t-18.5 -47.5
t-49.5 -17.5q-28 0 -47.5 21t-19.5 54v17q0 43 35 75t107 32q36 0 67.5 -9t55 -28.5t37.5 -50.5t14 -74v-80q0 -26 -3 -47.5t-8 -39.5q15 -16 34 -35t39 -38q16 -17 30 -32t26 -31v517h-715v45h890v-45zM1163 705h-127v-705q-21 0 -33 12.5t-12 32.5v660h-128v45h300v-45z
" />
    <glyph glyph-name="u0987" unicode="&#x987;" horiz-adv-x="638" 
d="M367 911q38 0 70.5 -15.5t56 -38.5t37 -49t13.5 -47v-56l-72 45q8 0 18.5 4.5t10.5 21.5q0 38 -27 59t-73 21h-264q-22 0 -39 7t-33 19.5t-31.5 29.5t-34.5 36q15 0 26 -1t19 -9q10 -11 19 -16.5t18 -7.5t20.5 -2.5t28.5 -0.5h237zM619 -50h-30.5t-25.5 14
q-11 10 -14.5 14t-5.5 6l-5 5l-12 12q-43 43 -80 74.5t-69 53.5t-59.5 36t-50.5 22q-29 10 -59.5 12.5t-48.5 4.5q-17 2 -31 14t-14 31v39q9 -3 23 -5t35 -3t51.5 -1.5t74.5 -0.5q40 0 76 12t63 34.5t42.5 54t15.5 71.5v33q0 43 -18 69t-44.5 40t-56 18.5t-52.5 4.5
q-41 0 -73.5 -9t-46.5 -22q-11 -10 -11 -23q19 0 37.5 -13.5t18.5 -39.5q0 -30 -18.5 -48.5t-48.5 -18.5q-29 0 -48.5 21.5t-19.5 49.5v5q0 28 11 53t35 43.5t62.5 29t94.5 10.5q59 0 102 -14t71 -38t41.5 -54.5t13.5 -63.5v-48q0 -97 -52 -151.5t-149 -65.5q-8 -1 -8 -5.5
t5 -6.5q33 -19 66 -48.5t71 -66.5zM681 750v-45h-690v45h690z" />
    <glyph glyph-name="u0988" unicode="&#x988;" horiz-adv-x="716" 
d="M627 565q4 -5 9.5 -10.5l10.5 -10.5l12 -12q-21 -22 -36 -44t-25 -56t-14.5 -85.5t-4.5 -133.5q0 -32 3.5 -66t9.5 -63t14 -51.5t17 -32.5h-22q-15 0 -26.5 25t-18.5 60t-10.5 71t-3.5 59v150q0 57 7 95l-197 -197q-30 -29 -70 -42.5t-91 -13.5h-27q-19 0 -32 13t-13 32
v35q14 -4 27.5 -5t23.5 -2q11 -1 21 0q41 0 74 14t56.5 35.5t36 46.5t12.5 47v68q0 39 -10.5 63.5t-27 38t-38 18t-42.5 4.5q-46 0 -67 -17q-12 -9 -12 -20q20 0 39.5 -12.5t19.5 -43.5q0 -33 -19 -49t-48 -16q-28 0 -48 20.5t-20 50.5v9q0 54 39 85t109 31q36 0 67 -9
t54 -28.5t36 -50.5t13 -74v-32q0 -17 -1 -27t-1 -11l143 143q17 17 38 14.5t33 -13.5zM731 750v-45h-740v45h540q9 0 19.5 4.5t10.5 21.5q0 38 -27 59t-73 21h-287q-22 0 -39 7t-33 19.5t-31.5 29.5t-34.5 36q15 0 26 -1t20 -9q10 -11 18.5 -16.5t18 -7.5t20.5 -2.5t28 -0.5
h260q38 0 70.5 -15.5t56 -38.5t37 -49t13.5 -47v-11h127z" />
    <glyph glyph-name="u0989" unicode="&#x989;" horiz-adv-x="773" 
d="M499 911q38 0 70.5 -15.5t56 -38.5t37 -49t13.5 -47v-43l-73 32q9 0 19.5 4.5t10.5 21.5q0 38 -27 59t-74 21h-336q-22 0 -39 7t-33 19.5t-31.5 29.5t-34.5 36q15 0 26 -1t19 -9q10 -11 19 -16.5t18 -7.5t20.5 -2.5t28.5 -0.5h310zM360 705v-302q0 -14 8 -20t18 -7
q2 0 5 0.5t7 0.5q19 0 41.5 23.5t44 56.5t40.5 69t33 62q33 -19 59 -41q23 -19 41.5 -44t18.5 -54v-132q0 -51 -12.5 -97.5t-41.5 -81t-76.5 -55t-118.5 -20.5q-62 0 -107.5 16.5t-77 44.5t-52.5 65.5t-35.5 79t-24 85.5t-18.5 85q-7 29 -15 70t-16 78q-9 43 -18 88
q14 0 24 -6.5t12 -19.5q10 -44 18 -82.5t20 -84.5q14 -56 31 -116.5t47.5 -111t81 -83.5t130.5 -33q54 0 92 13.5t61.5 38t34.5 58.5t11 76v148q0 25 -7 33t-15 8q-6 0 -9 -4t-5 -7q-17 -30 -34 -58.5t-34 -50.5t-35.5 -35t-39.5 -13h-47q-17 0 -32.5 4.5t-27 14.5t-18.5 27
t-7 41v273h-324v45h797v-45h-428z" />
    <glyph glyph-name="u098A" unicode="&#x98a;" horiz-adv-x="773" 
d="M499 911q38 0 70.5 -15.5t56 -38.5t37 -49t13.5 -47v-43l-73 32q9 0 19.5 4.5t10.5 21.5q0 38 -27 59t-74 21h-336q-22 0 -39 7t-33 19.5t-31.5 29.5t-34.5 36q15 0 26 -1t19 -9q10 -11 19 -16.5t18 -7.5t20.5 -2.5t28.5 -0.5h310zM360 705v-302q0 -14 8 -20t18 -7
q2 0 5 0.5t7 0.5q19 0 41.5 23.5t44 56.5t40.5 69t33 62q33 -19 59 -41q23 -19 41.5 -44t18.5 -54v-132q0 -51 -12.5 -97.5t-41.5 -81t-76.5 -55t-118.5 -20.5q-62 0 -107.5 16.5t-77 44.5t-52.5 65.5t-35.5 79t-24 85.5t-18.5 85q-7 29 -15 70t-16 78q-9 43 -18 88
q14 0 24 -6.5t12 -19.5q10 -44 18 -82.5t20 -84.5q14 -56 31 -116.5t47.5 -111t81 -83.5t130.5 -33q54 0 92 13.5t61.5 38t34.5 58.5t11 76v148q0 25 -7 33t-15 8q-6 0 -9 -4t-5 -7q-17 -30 -34 -58.5t-34 -50.5t-35.5 -35t-39.5 -13h-47q-17 0 -32.5 4.5t-27 14.5t-18.5 27
t-7 41v273h-324v45h797v-45h-428zM264 345q-14 0 -23.5 3.5t-15.5 20.5q-3 6 -7.5 22.5t-10 39t-12 49.5t-12.5 54q-15 63 -31 141q14 0 23.5 -6.5t12.5 -19.5q7 -34 18 -79.5t21.5 -89.5t20.5 -81t16 -54z" />
    <glyph glyph-name="u098B" unicode="&#x98b;" horiz-adv-x="807" 
d="M823 705h-130v-580q-21 0 -33 12.5t-12 32.5v32q0 31 -20.5 58.5t-61.5 68.5q-14 13 -19 18.5t-7 7.5t-4 3.5t-8 7.5q-5 4 -11.5 6.5t-11.5 4.5v-377q-20 0 -32 12t-13 32v9q0 20 -2 35.5t-8.5 29.5t-17.5 28.5t-29 32.5q-36 36 -76.5 60t-80.5 38.5t-77 20.5t-65 6v111
q21 21 56.5 47t76.5 50.5t83.5 46t78.5 33.5l-95 95q-1 -21 -14 -43t-35.5 -40t-53 -29.5t-66.5 -11.5q-52 0 -78.5 20t-26.5 58q0 23 16.5 41t39.5 18q31 0 43 -18.5t12 -47.5q56 0 85 22.5t29 59.5v34q23 0 32 -5.5t21 -17.5l26 -26t32 -31.5t34.5 -34l33.5 -33.5
q7 2 13.5 2.5t12.5 1.5v144h45v-322q16 -16 40 -37.5t46 -43.5q17 -17 31 -32t26 -31v466h175v-45zM460 537q-20 -1 -60 -18.5t-83.5 -41t-82 -48.5t-55.5 -41q-7 -6 -11.5 -11t-4.5 -13q0 -9 3.5 -13t12.5 -6q80 -19 138.5 -57t92.5 -72q29 -29 50 -57v378z" />
    <glyph glyph-name="u098F" unicode="&#x98f;" horiz-adv-x="748" 
d="M560 750q37 0 63.5 -26t26.5 -64v-660q-19 0 -32 12t-13 33v20q0 17 -9.5 34.5t-25.5 32t-37 24t-44 9.5h-174q-69 0 -115 16.5t-74 46.5t-39.5 73.5t-11.5 97.5v167q12 -2 22.5 -9.5t10.5 -24.5v-103q0 -60 14 -97t40.5 -57.5t65 -27.5t87.5 -7h118q20 0 35.5 -1.5
t29 -6.5t26.5 -15t29 -26l29 -29q11 -11 23 -22v520q0 24 -17 32t-37 8q-42 0 -81.5 -13.5t-70.5 -36.5t-50 -53t-19 -63v-45q8 5 17.5 8.5t20.5 3.5q26 0 45.5 -19t19.5 -46q0 -26 -20 -46.5t-52 -20.5q-19 0 -36.5 5.5t-30.5 18.5t-21 34.5t-8 52.5v74q0 34 19 69t51 63
t74 46t88 18h63v0z" />
    <glyph glyph-name="u0990" unicode="&#x990;" horiz-adv-x="871" 
d="M732 811q15 -14 31.5 -31t30 -35.5t22.5 -39.5t9 -43v-140q0 -69 -36.5 -108.5t-106.5 -39.5h-42v-374q-19 0 -32 12t-13 33v20q0 17 -9.5 34.5t-25.5 32t-37 24t-44 9.5h-174q-69 0 -115 16.5t-74 46.5t-39.5 73.5t-11.5 97.5v167q12 -2 22.5 -9.5t10.5 -24.5v-103
q0 -60 14 -97t40.5 -57.5t65 -27.5t87.5 -7h118q20 0 35.5 -1.5t29 -6.5t26.5 -15t29 -26l29 -29q11 -11 23 -22v520q0 24 -17 32t-37 8q-42 0 -81.5 -13.5t-70.5 -36.5t-50 -53t-19 -63v-45q8 5 17.5 8.5t20.5 3.5q26 0 45.5 -19t19.5 -46q0 -26 -20 -46.5t-52 -20.5
q-19 0 -36.5 5.5t-30.5 18.5t-21 34.5t-8 52.5v74q0 34 19 69t51 63t74 46t88 18h63q37 0 63.5 -26t26.5 -64v-225q0 -12 11 -21t27 -9q20 0 37 5t29 18.5t19 36.5t7 58v145q0 37 -14.5 63t-34.5 46q-28 27 -51 51l-38.5 38.5t-23.5 24.5q-13 12 -13 23.5v33.5l137 -137v0z
" />
    <glyph glyph-name="u0993" unicode="&#x993;" horiz-adv-x="750" 
d="M581 403q19 -5 35 -16.5t27 -28t17.5 -36.5t6.5 -41v-20q0 -47 -12 -83.5t-40.5 -62.5t-75.5 -39.5t-118 -13.5q-56 0 -98.5 17.5t-74.5 47.5t-55 69t-39.5 82t-28.5 87t-22 83q-8 29 -16.5 70.5t-15.5 79.5q-9 44 -16 91q14 0 23.5 -6.5t12.5 -19.5q9 -44 17.5 -85
t19.5 -87q10 -37 20.5 -77.5t25 -80t35 -75t50 -62.5t69 -43t93.5 -16q108 0 152 35.5t44 106.5q0 44 -12.5 68.5t-57.5 24.5h-94q-11 0 -19 7.5t-8 18.5t8 18.5t19 7.5h35q15 0 37 16t42.5 39t35 48.5t14.5 45.5q0 40 -13 65t-36.5 38.5t-56.5 18t-73 4.5q-38 0 -68.5 -8.5
t-52.5 -22.5t-34 -32t-12 -37v-28l16 1q28 0 47.5 -18.5t19.5 -49.5q0 -28 -18 -47.5t-51 -19.5q-22 0 -37 8.5t-24.5 22.5t-13.5 33.5t-4 40.5v41q0 42 17 73t46.5 51.5t69.5 31t86 10.5h11q58 0 101.5 -15t72 -40.5t43 -59t14.5 -70.5v-42q0 -17 -9 -35t-22 -33.5t-28 -29
t-27 -21.5z" />
    <glyph glyph-name="u0994" unicode="&#x994;" horiz-adv-x="820" 
d="M677 811q15 -14 31.5 -31t30 -35.5t22.5 -39.5t9 -43v-140q0 -69 -37 -108.5t-106 -39.5h-10q39 -32 39 -92v-20q0 -47 -12 -83.5t-40.5 -62.5t-76 -39.5t-118.5 -13.5q-56 0 -98.5 17.5t-74.5 47.5t-54.5 69t-39.5 82t-28.5 87t-21.5 83q-8 29 -16 70.5t-16 79.5
q-9 44 -17 91q14 0 24 -6.5t12 -19.5q10 -44 18 -85t19 -87q9 -37 20 -77.5t25.5 -80t35 -75t50 -62.5t69.5 -43t93 -16q54 0 92 9t61 26.5t33.5 44t10.5 62.5q0 44 -13 68.5t-58 24.5h-89q-11 0 -18.5 7.5t-7.5 18.5t7.5 18.5t18.5 7.5h11q15 0 37 16t42.5 39t35 48.5
t14.5 45.5q0 40 -10 65t-30 38.5t-50 18t-70 4.5q-38 0 -68.5 -8.5t-52 -22.5t-33.5 -32t-12 -37v-28l15 1q29 0 48.5 -18.5t19.5 -49.5q0 -28 -18.5 -47.5t-51.5 -19.5q-43 0 -61 31t-18 74v41q0 42 17 73t46.5 51.5t69.5 31t86 10.5h12q58 0 98.5 -15t65.5 -40.5t36 -59
t11 -70.5v-42q0 -17 -8.5 -34.5t-21.5 -33.5t-28 -29t-28 -21h73q20 0 37 5t29 18.5t19 36.5t7 58v145q0 37 -14.5 63t-34.5 46l-114 114q-12 12 -12 23.5v33.5l137 -137v0z" />
    <glyph glyph-name="u0995" unicode="&#x995;" horiz-adv-x="744" 
d="M454 705v-75q47 0 93.5 -21t84 -54t61 -73t23.5 -77v-37q0 -35 -9.5 -60t-23.5 -41t-32 -23.5t-34 -7.5q-28 0 -46 15.5t-18 41.5q0 23 15.5 39.5t38.5 16.5q18 0 33 -11.5t15 -28.5q13 0 21.5 16.5t8.5 42.5q0 37 -21 72t-54.5 62t-74.5 43t-81 16v-561q-21 0 -33 12.5
t-12 32.5v34q0 27 -14 48.5t-43 51.5q-38 38 -79 66.5t-81 47t-77 27.5t-68 9v121q30 30 76 61.5t97 57.5t101 43t88 17v76h-437v45h807v-45h-325zM409 561q-27 -1 -66.5 -14.5t-81 -33.5t-79.5 -44.5t-61 -46.5q-6 -6 -11 -13t-5 -15t3 -13.5t14 -10.5q89 -35 146 -77
t90 -75q30 -30 51 -58v401z" />
    <glyph glyph-name="u0996" unicode="&#x996;" horiz-adv-x="650" 
d="M684 705h-130v-705q-20 0 -32.5 12.5t-12.5 32.5v28q-3 24 -17.5 46t-50.5 59q-33 33 -75.5 56.5t-87 39t-87.5 23t-77 7.5v143q37 0 81 8.5t82 26.5t63.5 45t25.5 63q0 23 -1.5 40t-20.5 37l-22 22q0 -21 -12 -43t-33 -40.5t-56 -30.5t-71 -12q-54 0 -83.5 19.5
t-29.5 58.5q0 27 16.5 43t39.5 16q18 0 28.5 -6.5t16.5 -17t7.5 -22.5t1.5 -22q1 -1 3 -1h9q25 0 49.5 8t37.5 20.5t19.5 27.5t6.5 29v34q17 0 27 -3.5t23 -16.5l63 -63q12 -12 21.5 -30.5t9.5 -42.5v-51q0 -34 -21 -60.5t-53.5 -46t-71 -33t-72.5 -20.5q-15 -5 -15 -19
q0 -12 9 -16.5t17 -6.5q59 -19 128 -52.5t130 -93.5l22 -24t20 -25v604h175v-45z" />
    <glyph glyph-name="ga" unicode="&#x997;" horiz-adv-x="660" 
d="M695 706h-131v-706q-20 0 -32.5 12t-12.5 33v429q0 21 -2.5 36.5t-9.5 30.5t-18 32t-27 41q-21 30 -38 47.5t-36.5 26.5t-44.5 11t-64 2q-43 0 -69.5 -8.5t-41.5 -24.5t-21.5 -39t-7.5 -51q-2 -21 18 -21h94q28 0 51 -11t39.5 -29t26 -41.5t9.5 -47.5q0 -32 -10 -64
t-42 -65l-65 -63h-100l128 125q3 4 10.5 12.5t15 20t13 24t5.5 24.5q0 42 -22.5 53.5t-58.5 11.5h-181v50q0 39 6.5 74.5t28 61.5t63 41.5t111.5 15.5q46 0 76 -6.5t52 -20.5t41 -37.5t43 -57.5q8 -13 15.5 -24t12.5 -22v168h176v-44z" />
    <glyph glyph-name="u0998" unicode="&#x998;" horiz-adv-x="624" 
d="M658 705h-130v-705q-20 0 -32 12t-12 32v12q0 16 -2 28.5t-9 25t-20.5 28.5t-37.5 39q-33 33 -71.5 57t-79 39t-80 22.5t-73.5 7.5v106l115 103q-78 1 -123 38.5t-45 120.5v34h-87v45h687v-45zM484 705h-350q-3 -8 -5 -17.5t-2 -16.5q0 -27 4 -50.5t15 -41t30.5 -27
t51.5 -9.5q20 0 30.5 3.5t15.5 8.5l65 58l47 -51q-54 -47 -97 -85l-36 -32t-33 -29t-25 -22t-12 -11q-7 -7 -10 -11.5t-3 -10.5q0 -8 5 -11t17 -5q66 -15 129 -54.5t119 -95.5q24 -25 44 -47v557z" />
    <glyph glyph-name="u0999" unicode="&#x999;" horiz-adv-x="783" 
d="M576 523q31 -19 56 -40q21 -19 38.5 -43t17.5 -53v-81q0 -51 -13 -95.5t-43 -77.5t-78.5 -52t-119.5 -19q-62 0 -107.5 16.5t-77.5 45t-53 65.5t-35 78t-23 83t-18 81q-3 12 -6.5 28.5t-7.5 36t-8 40t-8 40.5q-10 47 -19 98q14 0 24.5 -6t13.5 -20q4 -21 8 -39t8.5 -37
t9 -41t10.5 -51q14 -68 32.5 -130.5t50.5 -109.5t81 -75t125 -28q109 0 156.5 46.5t47.5 130.5v65q0 25 -1.5 38.5t-4.5 20t-6.5 8t-7.5 1.5q-8 0 -10.5 -4.5t-4.5 -7.5q-18 -26 -36.5 -52.5t-37.5 -48t-39 -35t-42 -13.5h-80q-9 0 -23.5 4.5t-27.5 16.5t-22.5 32.5
t-9.5 52.5v118h-61q-11 0 -16 4.5t-7 10.5q-3 7 -2 16h86v159q0 24 13.5 37t37.5 13h67q30 0 52.5 -13.5t37.5 -32.5t23 -40.5t8 -36.5q0 -34 -11.5 -56.5t-29.5 -36t-40.5 -19t-44.5 -5.5h-67v-119q0 -32 11 -53t45 -21q24 0 49 19.5t49.5 49.5t47.5 66.5t43 70.5zM331 541
h67q33 0 54.5 20t21.5 66q0 41 -14.5 59.5t-49.5 18.5h-79v-164z" />
    <glyph glyph-name="u099A" unicode="&#x99a;" horiz-adv-x="619" 
d="M151 705v-51q0 -25 11.5 -35t20.5 -18q23 -24 40 -38.5t32 -21.5t31.5 -9t38.5 -2h107q1 0 18.5 -10t38 -29t37.5 -45t17 -59v-43q0 -20 -12 -48.5t-33 -60t-48 -62.5t-57.5 -55.5t-61.5 -40t-60 -15.5h-74q-37 0 -64 24.5t-27 73.5v545h-125v45h656v-45h-486zM325 480
q-35 0 -58.5 7.5t-41.5 21t-35 33t-39 42.5v-425q0 -19 6.5 -28.5t17 -13.5t23.5 -4h25q21 0 47.5 12.5t54.5 34t55 49t48 58t34 61t13 58.5q0 57 -17.5 75.5t-56.5 18.5h-76z" />
    <glyph glyph-name="u099B" unicode="&#x99b;" horiz-adv-x="632" 
d="M146 705v-14q0 -12 11 -26.5t19 -22.5q5 -5 13 -14t20 -17.5t28.5 -15t37.5 -6.5h147q29 0 56.5 -16t49.5 -40t35 -53t13 -54v-33q0 -39 -12 -75t-34.5 -66t-55 -52.5t-72.5 -34.5q-10 -2 -10 -7.5t8 -9.5q20 -10 39 -23t34 -27l25.5 -22.5t21 -20t36 -35.5t70.5 -70
q-18 0 -30 0.5t-26 13.5q-11 10 -15 14t-6 5.5t-5.5 4.5t-12.5 12q-58 55 -106 85.5t-97 44.5q-30 8 -70.5 11.5t-73.5 5.5q-16 1 -25.5 6t-15 12t-7.5 16t-2 19v21q10 -2 32 -4.5t51 -2.5h64q57 0 102.5 17t77 44t48.5 61.5t17 70.5v19q0 42 -12.5 64.5t-33 33.5t-47.5 13
t-56 2q11 -11 18.5 -22.5t7.5 -19.5v-35q0 -24 -16 -52.5t-41.5 -52.5t-56.5 -40t-61 -16h-60q-9 0 -20.5 4.5t-22 13.5t-17.5 23t-7 34v329h-125v45h662v-45h-492zM282 535q-27 0 -46.5 8.5t-35 22t-28 28.5t-26.5 29v-249q0 -17 8.5 -22.5t19.5 -5.5q28 0 56.5 14
t51.5 34.5t38 44.5t15 45q0 32 -8.5 41.5t-22.5 9.5h-22z" />
    <glyph glyph-name="ja" unicode="&#x99c;" horiz-adv-x="833" 
d="M481 706q-13 -1 -16 -13t-1 -18q7 -22 18 -38.5t29 -27.5t45.5 -16.5t69.5 -5.5h90q11 0 17 -4t11 -9l42 -42q-21 -22 -36 -44t-24.5 -55.5t-14 -85.5t-4.5 -133q0 -33 3 -66.5t9 -63t14 -52t17 -32.5h-22q-15 0 -26.5 25t-19 60t-11 71.5t-3.5 59.5v149q0 51 6 89t16 64
h-59q-51 0 -85.5 13.5t-58 38t-38.5 58.5t-27 75q-28 -6 -54 -23.5t-45.5 -40t-31 -48t-11.5 -49.5v-15q0 -37 22 -63.5t64 -26.5h149h46v-115q0 -68 -17 -108t-45 -60t-63 -25.5t-72 -5.5q-54 0 -93 20t-66.5 51t-45.5 69.5t-31 75.5q-7 21 -14 46.5t-15.5 63t-20.5 90.5
t-29 130h7.5t11 -1.5t10.5 -6t7 -12.5q10 -44 17.5 -72t13 -48.5t10 -37t9.5 -35.5q19 -65 39 -113.5t46.5 -80.5t61 -47.5t82.5 -15.5q44 0 73 8.5t45.5 25t23 41.5t6.5 58q0 26 -6.5 31.5t-21.5 5.5h-89q-44 0 -75 15t-51 38.5t-29 50.5t-9 51v70q0 26 12.5 57t35.5 55
h-290v44h875v-44h-383v0z" />
    <glyph glyph-name="u099D" unicode="&#x99d;" horiz-adv-x="761" 
d="M796 706h-130v-581q-21 0 -33 14.5t-12 35.5v27q0 17 -5 31t-15.5 28.5t-26 30.5t-35.5 36l-38 38q-4 4 -10.5 6.5t-11.5 4.5v-377q-20 0 -32.5 12t-13.5 32v9q0 20 -2 35.5t-8.5 29.5t-17.5 28.5t-29 32.5q-38 38 -79 66.5t-80.5 47t-76.5 27.5t-68 9v122q29 29 75 60.5
t97 57.5t101 43t88 17v77h-449v44h495v-322q16 -16 39.5 -37.5t45.5 -43.5q17 -16 31.5 -32t25.5 -31v466h175v-44zM433 560q-27 -1 -66.5 -14t-81 -33.5t-79.5 -44.5t-61 -47q-5 -6 -10 -12.5t-5 -14.5t2.5 -13.5t13.5 -10.5q45 -17 81.5 -37t65.5 -40t51 -39.5t39 -35.5
q27 -28 50 -59v401z" />
    <glyph glyph-name="u099E" unicode="&#x99e;" horiz-adv-x="785" 
d="M161 156q-34 0 -52 23t-18 52h108q20 0 35.5 -1.5t29 -6.5t26.5 -15t29 -26l29 -29q11 -11 23 -22v453q0 39 -6.5 61.5t-20 34t-35 14t-51.5 2.5q-19 0 -36.5 -5t-30.5 -18.5t-21 -36t-8 -56.5q67 0 67 -70q0 -28 -17 -45.5t-49 -17.5q-21 0 -35 9t-22.5 23.5t-11.5 33.5
t-3 39v28q0 75 44.5 118t122.5 43q33 0 62 -8.5t50 -23.5t33 -36.5t12 -47.5q23 29 51.5 50t51.5 21h48q44 0 67.5 -18.5t34 -43.5t12 -51t1.5 -41q0 -29 -7 -49.5t-16.5 -34.5t-20.5 -22t-19 -12q8 -4 19 -12t20.5 -22t16.5 -34.5t7 -49.5q0 -15 -1.5 -41t-12 -51
t-34 -43.5t-67.5 -18.5h-48q-23 0 -51 21t-51 49v-231q-19 0 -32 12t-13 33v20q0 17 -9 34.5t-25 32t-36.5 24t-43.5 9.5h-96zM561 202q35 0 52.5 21.5t17.5 82.5q0 10 -1 26t-4.5 30.5t-11.5 25t-22 10.5h-51q-11 0 -18 7.5t-7 18.5t7 18.5t18 7.5h51q14 0 22 10.5t11.5 25
t4.5 30t1 26.5q0 61 -17.5 82.5t-52.5 21.5h-43q-17 0 -35 -7.5t-33 -19t-24.5 -25t-9.5 -25.5v-292q0 -13 8.5 -26.5t22.5 -24t32.5 -17.5t38.5 -7h43z" />
    <glyph glyph-name="Ta" unicode="&#x99f;" horiz-adv-x="606" 
d="M355 911q38 0 70.5 -15.5t56 -38.5t36.5 -49t13 -47v-43l-71 32q8 0 18.5 4t10.5 21q0 40 -27 60.5t-74 20.5h-276q-22 0 -39 7t-33 19.5t-31.5 29.5t-34.5 36q15 0 26 -0.5t19 -9.5q10 -11 19 -16.5t18 -7.5t20.5 -2.5t28.5 -0.5h250zM140 706v-547q0 -21 6.5 -31
t17 -13.5t23 -2.5t24.5 1q22 0 49 12t55 32.5t55 47t48 55.5t33.5 58.5t12.5 56.5v37q0 11 -5 21t-16 10q0 -7 -5 -14t-13.5 -12t-18.5 -8.5t-19 -3.5q-28 0 -45.5 19.5t-17.5 48.5q0 28 22 50.5t59 22.5q24 0 47 -7t41 -22.5t29 -40.5t11 -62v-62q0 -23 -12.5 -53.5
t-34 -62.5t-49.5 -63.5t-58.5 -56t-61 -39.5t-57.5 -15h-75q-36 0 -62.5 25t-26.5 73v546h-125v44h659v-44h-490z" />
    <glyph glyph-name="u09A0" unicode="&#x9a0;" horiz-adv-x="570" 
d="M593 705h-302l121 -121q29 -29 50 -56t34.5 -56t19.5 -62.5t6 -76.5q0 -72 -17.5 -123.5t-50.5 -84.5t-81 -48t-110 -15q-41 0 -79 9.5t-67 31t-46.5 55.5t-17.5 83v108q19 4 49 17t58.5 34.5t48.5 52t20 69.5v183h-257v45h229l-55 54q-11 12 -20 22t-15 21.5t-9 24.5
t-3 30v83q6 0 11 -3q4 -2 7.5 -7t3.5 -14v-63q0 -20 15.5 -37.5t34.5 -35.5l75 -75h347v-45zM273 677v-227q0 -30 -21.5 -58t-51.5 -51t-62 -39.5t-53 -23.5v-25q0 -36 14.5 -58.5t38.5 -35.5t54.5 -17.5t63.5 -4.5q37 0 75 7.5t69.5 28.5t51.5 60t20 102q0 38 -5 70
t-15.5 60.5t-28.5 55t-43 52.5z" />
    <glyph glyph-name="Da" unicode="&#x9a1;" horiz-adv-x="773" 
d="M360 705v-302q0 -14 8 -20t18 -7q2 0 5 0.5t7 0.5q19 0 41.5 23.5t44 56.5t40.5 69t33 62q33 -19 59 -41q23 -19 41.5 -44t18.5 -54v-132q0 -51 -12.5 -97.5t-41.5 -81t-76.5 -55t-118.5 -20.5q-62 0 -107.5 16.5t-77 44.5t-52.5 65.5t-35.5 79t-24 85.5t-18.5 85
q-7 29 -15 70t-16 78q-9 43 -18 88q14 0 24 -6.5t12 -19.5q10 -44 18 -82.5t20 -84.5q14 -56 31 -116.5t47.5 -111t81 -83.5t130.5 -33q54 0 92 13.5t61.5 38t34.5 58.5t11 76v148q0 25 -7 33t-15 8q-6 0 -9 -4t-5 -7q-17 -30 -34 -58.5t-34 -50.5t-35.5 -37.5t-39.5 -15.5
h-47q-17 0 -32.5 4.5t-27 17t-18.5 29.5t-7 41v273h-324v45h797v-45h-428z" />
    <glyph glyph-name="Dha" unicode="&#x9a2;" horiz-adv-x="601" 
d="M140 705v-547q0 -21 6.5 -31t16.5 -13t22.5 -2.5t24.5 0.5q22 0 49 12t55 32.5t54.5 47t47.5 55.5t33.5 59t12.5 57v37q0 11 -4.5 21t-14.5 10q0 -15 -19 -26.5t-38 -11.5q-28 0 -45.5 20t-17.5 47q0 29 22 51.5t59 22.5q24 0 47 -7t41 -22.5t29 -41t11 -62.5v-61
q0 -23 -12.5 -53.5t-34 -62.5t-49.5 -63.5t-58.5 -56t-61.5 -39.5t-58 -15h-74q-36 0 -62.5 24.5t-26.5 72.5v546h-125v45h660v-45h-490z" />
    <glyph glyph-name="u09A3" unicode="&#x9a3;" horiz-adv-x="631" 
d="M661 750v-45h-130v-705q-21 0 -33 12t-12 32v432q0 21 -2.5 37.5t-9 32t-18 33t-28.5 41.5q-21 30 -36 46.5t-31 24t-36.5 8.5t-51.5 1q-59 0 -94 -35.5t-37 -100.5v-98q0 -16 6.5 -29.5t15.5 -13.5q0 22 17 37.5t40 15.5q28 0 45 -18t17 -49q0 -32 -23 -52t-67 -20
q-21 0 -42 8t-38.5 24.5t-28 43t-10.5 63.5v68q0 45 10 83t33.5 65t61.5 42.5t94 15.5q39 0 64 -6t44.5 -19.5t37 -36t41.5 -56.5q8 -11 14.5 -22t11.5 -20v160h175z" />
    <glyph glyph-name="u09A4" unicode="&#x9a4;" horiz-adv-x="770" 
d="M488 623q51 0 90 -17t65 -44t39 -61.5t13 -70.5v-116q0 -51 -13 -97t-42.5 -80.5t-78 -54.5t-118.5 -20q-62 0 -109 16.5t-81.5 45t-58.5 65.5t-40.5 78t-27.5 82.5t-19 79.5q-3 12 -6.5 28.5t-7 36t-8 40t-8.5 40.5q-10 47 -21 98q14 0 24.5 -6.5t12.5 -19.5
q5 -21 9.5 -41.5t9.5 -42t10.5 -45.5t12.5 -53q15 -67 37.5 -126.5t58 -103.5t87 -70t125.5 -26q108 0 154.5 50t46.5 134v108q0 43 -14.5 72.5t-36.5 48t-49 26.5t-52 8q-29 0 -53.5 -7.5t-36.5 -19.5q-7 -6 -9.5 -12.5t-2.5 -11.5q26 0 48 -15.5t22 -47.5t-20.5 -54
t-51.5 -22q-33 0 -56 23t-23 62v11q0 28 10 52t31.5 42t55.5 28t82 10zM787 750v-44h-817v44h817z" />
    <glyph glyph-name="u09A5" unicode="&#x9a5;" horiz-adv-x="654" 
d="M688 750v-44h-130v-706q-20 0 -32 12t-12 33v28q-3 23 -17.5 45.5t-50.5 58.5q-33 33 -75.5 57t-87 39t-87.5 22.5t-77 7.5v144q37 0 81 9t81.5 27t62.5 45t25 63t-9 58.5t-26 35.5t-41.5 18t-54.5 5q-41 0 -70 -12t-29 -33q23 0 40 -17.5t17 -42.5q0 -29 -20 -48.5
t-48 -19.5t-50 20t-22 56q0 27 8 52.5t27.5 44.5t53.5 30.5t85 11.5t87 -12t58.5 -33t33 -49.5t10.5 -60.5v-31q0 -42 -21.5 -73t-54.5 -53t-71.5 -36t-72.5 -21q-12 -5 -12 -17t9.5 -16t17.5 -7q59 -18 127.5 -52t130.5 -94q11 -13 22 -25t20 -24v604h174z" />
    <glyph glyph-name="u09A6" unicode="&#x9a6;" horiz-adv-x="612" 
d="M139 706v-313q25 28 61 62t77.5 63.5t87.5 49.5t91 20h25q14 0 21.5 -3.5t19.5 -15.5q6 -7 12.5 -13.5l11.5 -11.5q6 -6 13 -12q-21 -22 -36 -44t-24.5 -55.5t-14 -85.5t-4.5 -133q0 -33 3 -66.5t9 -63t14 -52t17 -32.5h-22q-15 0 -26 25t-18.5 60t-11 71.5t-3.5 59.5
v149q0 52 6 90t16 64h-8q-30 0 -64.5 -15.5t-69 -40.5t-67 -55.5t-57 -60t-39.5 -55.5t-15 -41q-21 0 -35.5 14.5t-14.5 34.5v406h-124v44h662v-44h-493z" />
    <glyph glyph-name="u09A7" unicode="&#x9a7;" horiz-adv-x="575" 
d="M609 750v-44h-130v-706q-20 0 -33 12t-13 33v27q0 27 -13.5 52t-42.5 55q-36 36 -77.5 59.5t-83 38t-79 20.5t-65.5 6v116q32 27 67.5 52t83.5 51q-68 4 -104 31.5t-36 90.5q0 29 10 49.5t25.5 33t36 18t41.5 5.5q30 0 48.5 -16.5t18.5 -39.5q0 -29 -15 -42.5t-38 -13.5
q-13 0 -28 11t-15 30q-6 0 -14 -7.5t-8 -24.5v-10q0 -42 24.5 -63.5t80.5 -21.5q9 0 23.5 2t23.5 7q14 6 33.5 14.5t39 15.5t36.5 12t27 5v142h176zM433 533q-10 0 -32.5 -8t-50.5 -20.5t-59 -28.5t-59.5 -32t-51.5 -31t-34 -25l-11 -11t-5 -13q0 -9 4 -12.5t13 -5.5
q39 -9 75 -24.5t66 -33t54 -36.5t41 -35q14 -14 26.5 -28.5t23.5 -30.5v375z" />
    <glyph glyph-name="u09A8" unicode="&#x9a8;" horiz-adv-x="605" 
d="M639 750v-45h-130v-705q-21 0 -33 12t-12 33v250q0 28 -2.5 48t-9 36.5t-17 30.5t-26.5 31q-21 21 -39.5 32t-39.5 16t-46.5 5.5t-60.5 0.5q-32 0 -52 -6.5t-32 -17.5t-16.5 -24.5t-4.5 -26.5v-24q12 6 26 6q29 0 48.5 -19.5t19.5 -47.5q0 -30 -20.5 -49t-52.5 -19
q-46 0 -68.5 25.5t-22.5 80.5v44q0 26 9 52.5t30 47.5t54.5 34.5t81.5 13.5q40 0 65.5 -4t46 -14.5t40 -29t48.5 -46.5q8 -8 19 -20.5t22 -27.5v282h-494v45h669z" />
    <glyph glyph-name="u09AA" unicode="&#x9aa;" horiz-adv-x="688" 
d="M595 705v-705q-21 0 -33 12t-12 33v394q0 27 -4.5 45.5t-11 32.5t-15 25.5t-16.5 24.5l-267 -267h-98l74 74q14 14 16 30.5t2 39.5q0 35 -18.5 53t-69.5 18h-92v50q0 43 9 77.5t33.5 58.5t68.5 36.5t114 12.5q46 0 78 -6.5t57 -21t45.5 -38t44.5 -57.5q5 -6 13 -18.5
t16 -24.5q10 -15 21 -31v197h175v-45h-130zM462 625q-20 25 -38 40t-39 23t-47.5 10t-62.5 2q-84 0 -119.5 -27t-35.5 -91q0 -17 18 -17h11q61 0 86.5 -35.5t25.5 -90.5v-16z" />
    <glyph glyph-name="u09AB" unicode="&#x9ab;" horiz-adv-x="791" 
d="M823 705h-659q20 -13 40 -33t42 -43q8 -8 23.5 -25.5t30.5 -34.5q18 -20 38 -44l-86 -68q-16 -13 -32 -25.5t-28.5 -23t-21.5 -17.5t-10 -8q-12 -12 -12 -22q0 -8 4.5 -11t15.5 -6q67 -15 127.5 -54t117.5 -96q11 -12 22 -23.5t20 -22.5v477h74q38 0 75 -10.5t66.5 -32
t47.5 -54t18 -75.5v-50q0 -63 -29.5 -92.5t-72.5 -29.5q-26 0 -44.5 16.5t-18.5 43.5q0 23 16 38t39 15q17 0 32.5 -11t15.5 -26q11 0 20.5 19t9.5 42q0 42 -14 68.5t-39 42t-58.5 21.5t-73.5 6h-19v-556q-20 0 -32.5 9.5t-12.5 30.5v33q0 21 -15.5 43.5t-52.5 60.5
q-33 33 -71 57t-78 39.5t-78.5 23t-72.5 7.5v110l180 147l-18 20q-7 8 -13 14l-7 7q-22 22 -46.5 35.5t-50 21t-50.5 10t-47 2.5v34h-65v45h853v-45z" />
    <glyph glyph-name="u09AC" unicode="&#x9ac;" horiz-adv-x="587" 
d="M620 750v-44h-130v-706q-21 0 -33 12t-12 33v34q0 28 -14 49t-44 51q-38 38 -81 66.5t-85 47t-81 27.5t-70 9v122q29 29 77 60.5t101.5 57.5t106 43t90.5 17v77h-475v44h650zM445 560q-27 0 -69 -13t-86 -33.5t-83.5 -45t-62.5 -47.5q-6 -6 -11 -12.5t-5 -14.5t3 -14
t14 -10q39 -12 76.5 -31t70.5 -40.5t59 -43t43 -37.5q14 -14 26.5 -28.5t24.5 -30.5v401z" />
    <glyph glyph-name="u09AD" unicode="&#x9ad;" horiz-adv-x="726" 
d="M563 589q33 -19 59 -41q22 -19 40.5 -44.5t18.5 -53.5v-133q0 -52 -13 -98t-42.5 -81t-78 -55.5t-119.5 -20.5q-63 0 -109 17t-80.5 46t-58 67t-40 79.5t-27.5 85t-21 82.5q-8 29 -16.5 69.5t-15.5 77.5q-9 43 -16 88q14 0 24 -6t13 -20q9 -43 17.5 -81.5t19.5 -84.5
q14 -56 34.5 -116.5t55.5 -111t88 -83.5t132 -33q54 0 93 13.5t63.5 38t36 59t11.5 76.5v147q0 25 -7 32.5t-15 7.5q-5 0 -8.5 -3.5t-5.5 -6.5q-17 -30 -33 -58.5t-34 -50t-39.5 -37.5t-49.5 -16h-59q-54 0 -88 36t-34 108q0 39 17 58t37 24q10 3 19 3q28 0 47.5 -20
t19.5 -48q0 -25 -9.5 -39t-21.5 -20.5t-24 -7.5t-16 -1q0 -30 18.5 -43.5t36.5 -13.5h18q19 0 41.5 23.5t45 57t42 70t33.5 62.5zM737 750v-44h-767v44h767z" />
    <glyph glyph-name="u09AE" unicode="&#x9ae;" horiz-adv-x="635" 
d="M669 706h-130v-706q-21 0 -33 12t-12 33v32q0 28 -2 46t-7 31.5t-15 25.5t-25 28q-26 26 -45 43.5t-33 28.5q-10 8 -22.5 15t-23.5 10.5t-18.5 4t-7.5 -5.5q0 -34 -24 -57.5t-58 -23.5q-35 0 -59 23.5t-24 57.5q0 35 24 59t59 24h19t20 -2q6 22 6 74q0 28 -2.5 47t-9 34
t-17.5 28.5t-28 31.5q-35 34 -77 47.5t-92 13.5v45h-62v44h699v-44zM494 706h-335q17 -8 35 -23t37 -35q12 -12 23.5 -24.5t20.5 -28.5t14.5 -37t5.5 -49v-140q46 -25 92.5 -66t84.5 -78q6 -5 11.5 -11t10.5 -12v504z" />
    <glyph glyph-name="u09AF" unicode="&#x9af;" horiz-adv-x="611" 
d="M645 750v-44h-130v-706q-20 0 -32.5 12t-12.5 33v29q0 23 -15 44.5t-53 58.5q-33 33 -74 57t-84 39t-84.5 22.5t-74.5 7.5v106l185 163l-11 11q-23 22 -49 37t-53 24t-53.5 13t-48.5 4h-22v45h-63v44h675zM470 706h-308q23 -14 47.5 -34t46.5 -42q2 -2 16.5 -16t31 -30
t29.5 -29t12 -14q-50 -42 -90 -76q-17 -15 -33.5 -29t-30 -25.5t-22.5 -19.5t-10 -10q-7 -6 -10.5 -10t-3.5 -10q0 -8 4.5 -11t15.5 -5q68 -15 137 -54.5t125 -95.5q13 -13 23.5 -24.5t19.5 -22.5v558z" />
    <glyph glyph-name="u09B0" unicode="&#x9b0;" horiz-adv-x="587" 
d="M235 143q23 0 39.5 -16.5t16.5 -39.5q0 -24 -16.5 -40.5t-39.5 -16.5t-40 16.5t-17 40.5q0 23 17 39.5t40 16.5zM621 750v-44h-130v-706q-21 0 -33 12t-12 33v34q0 28 -14 49t-44 51q-38 38 -81 66.5t-85 47t-81 27.5t-70 9v122q29 29 77 60.5t101.5 57.5t106 43t90.5 17
v77h-475v44h650zM446 560q-27 0 -69 -13t-86 -33.5t-83.5 -45t-62.5 -47.5q-6 -6 -11 -12.5t-5 -14.5t3 -14t14 -10q39 -12 76.5 -31t70.5 -40.5t59 -43t43 -37.5q14 -14 26.5 -28.5t24.5 -30.5v401z" />
    <glyph glyph-name="u09B2" unicode="&#x9b2;" horiz-adv-x="704" 
d="M739 751v-45h-130v-705q-21 0 -33 12.5t-12 32.5v317q0 29 -0.5 47t-3.5 31t-9.5 23t-19.5 23q-12 12 -23.5 19.5t-23.5 11t-26 4.5t-32 1q-24 0 -39 -19t-15 -72v-71q-19 0 -28 10t-9 24v59q0 22 -12.5 35.5t-32.5 21t-44.5 10t-47.5 2.5q-54 0 -81.5 -24t-28.5 -53v-64
q0 -13 4.5 -22.5t11.5 -13.5q4 24 22.5 40.5t44.5 16.5q28 0 47.5 -19.5t19.5 -47.5q0 -13 -4.5 -26.5t-14.5 -25t-27 -18.5t-42 -7q-21 0 -42 10t-37.5 28t-26.5 43.5t-10 56.5v60q0 27 9 52.5t29 45t51 31.5t75 12q51 0 88 -18.5t55 -55.5q8 38 27 56t52 18q17 0 30 -4
t26 -13t28.5 -23.5t37.5 -36.5l11.5 -11.5t10.5 -11.5v208h-594v45h769z" />
    <glyph glyph-name="u09B6" unicode="&#x9b6;" horiz-adv-x="696" 
d="M731 706h-130v-706q-20 0 -32.5 12t-12.5 33v463q0 26 -10 47t-31 55q-20 31 -34 49t-26 27.5t-24 12t-28 2.5q-54 0 -75.5 -23t-22.5 -81v-65q0 -12 5 -23.5t13 -20t18 -14t19 -5.5h34q29 0 49 -18t20 -47t-20 -48t-49 -19q-26 0 -47.5 16.5t-36.5 37t-23.5 38.5
t-9.5 21q-2 5 -6 5t-6 -5q-1 -2 -9.5 -20t-23.5 -38.5t-36.5 -37.5t-48.5 -17q-29 0 -48.5 19t-19.5 48t19.5 47t48.5 18h35q9 0 19 5.5t17.5 14t12.5 20t5 23.5v45q0 23 -9.5 39.5t-22.5 32.5q-10 12 -17.5 22.5t-16.5 18t-20.5 12t-29.5 4.5h-150v44h141q23 0 39.5 -7.5
t31 -20t28.5 -30.5t33 -40q12 46 40.5 72t63.5 26h56q16 0 31.5 -5.5t31.5 -19t34.5 -36.5t40.5 -58q5 -7 8.5 -12.5t6.5 -11.5v143h175v-44z" />
    <glyph glyph-name="u09B7" unicode="&#x9b7;" horiz-adv-x="610" 
d="M644 750v-44h-130v-706q-20 0 -32 12t-12 33v29q0 23 -15.5 44.5t-53.5 58.5q-33 33 -74 57t-83.5 39t-84 22.5t-74.5 7.5v106l185 163l-11 11q-23 22 -49 37t-53 24t-53.5 13t-49.5 4h-22v45h-62v44h674zM470 334q0 20 -5 34t-19 28q-30 29 -63.5 62.5t-61.5 62.5
q-19 -16 -45.5 -38.5t-51.5 -43.5t-44 -37.5t-22 -20.5q-7 -6 -10.5 -10t-3.5 -10q0 -8 5 -11t16 -5q67 -15 136.5 -54.5t125.5 -95.5q12 -13 23 -24.5t20 -22.5v186zM470 706h-308q23 -14 47 -34t47 -42l15 -15l35 -35l46 -46t48 -48.5t42 -42.5t28 -27v290z" />
    <glyph glyph-name="u09B8" unicode="&#x9b8;" horiz-adv-x="685" 
d="M719 705h-130v-705q-20 0 -32.5 12.5t-12.5 32.5v328q0 25 -3 42t-8.5 29.5t-14.5 23t-21 22.5q-14 14 -33.5 17t-35.5 -12q-2 -2 -15 -16.5t-31.5 -35t-40 -45t-41.5 -46.5t-36 -39t-22 -23q-15 -14 -26.5 -20.5t-22 -5t-22.5 10.5t-27 25q-10 10 -23 23.5t-24 25.5
l-28 28v46l35 -35q14 -14 25.5 -26t13.5 -14q8 -9 23 -11t28 12q5 5 20.5 21.5t29.5 33.5t17.5 31t3.5 34v34q0 18 -2.5 31t-7.5 24.5t-14 22t-22 23.5q-68 68 -177 68v33h-73v45h750v-45zM544 705h-365q15 -8 35.5 -22.5t37.5 -31.5q24 -24 34 -50t10 -64v-76q22 24 39 44
t37 41q25 27 54.5 26.5t52.5 -22.5q3 -3 12.5 -13t20.5 -21.5t20.5 -21.5t11.5 -13v224z" />
    <glyph glyph-name="u09B9" unicode="&#x9b9;" horiz-adv-x="638" 
d="M619 -50q-18 0 -30.5 0.5t-26.5 13.5q-11 10 -14.5 14t-5 6t-4.5 5l-12 12q-43 43 -80 74.5t-69 53.5t-59.5 35.5t-51.5 21.5q-29 11 -59 13.5t-48 4.5q-17 2 -31 14t-14 31v38q9 -3 22.5 -5t34.5 -3t51.5 -1.5t74.5 -0.5q40 0 76 12.5t63 35t43 54.5t16 71v33
q0 43 -18 69t-44.5 40t-56 18.5t-51.5 4.5q-42 0 -74.5 -9t-46.5 -22q-10 -9 -10 -23q18 0 36.5 -13.5t18.5 -39.5q0 -30 -18.5 -49t-49.5 -19q-28 0 -47.5 22t-19.5 50v5q0 28 11 53t35 43t62.5 28.5t94.5 10.5q59 0 102 -14t70.5 -37.5t41 -54t13.5 -63.5v-49
q0 -96 -51.5 -150.5t-148.5 -65.5q-7 -1 -7.5 -5t4.5 -7q33 -19 66 -48.5t71 -66.5zM680 750v-44h-689v44h689z" />
    <glyph glyph-name="u09BC" unicode="&#x9bc;" 
d="M-276 -50q23 0 39.5 -16.5t16.5 -39.5q0 -24 -16.5 -40.5t-39.5 -16.5t-40 16.5t-17 40.5q0 23 17 39.5t40 16.5z" />
    <glyph glyph-name="u09BE" unicode="&#x9be;" horiz-adv-x="263" 
d="M291 706h-128v-706q-20 0 -32 12t-12 33v661h-128v44h300v-44z" />
    <glyph glyph-name="u09BF" unicode="&#x9bf;" horiz-adv-x="274" 
d="M779 796h-22.5t-15 1.5t-12 5t-12.5 10.5l-68 68q-35 34 -61 55t-55 32t-67.5 14.5t-98.5 3.5q-57 0 -96 -10t-63 -30t-34 -50.5t-10 -72.5v-72h127v-45h-127v-705q-21 0 -33 12.5t-12 32.5v660h-128v45h128v19q0 9 -3.5 18.5t-8.5 17.5q-5 9 -12 17q0 58 13.5 102
t45 72.5t83.5 43t130 14.5q66 0 109.5 -11t76.5 -32t61 -50t64 -65z" />
    <glyph glyph-name="u09C0" unicode="&#x9c0;" horiz-adv-x="271" 
d="M291 705h-127v-705q-21 0 -33 12t-12 33v660h-128v45h128v22q0 33 -10.5 70.5t-37 69t-73 52.5t-118.5 21q-125 0 -180 -8t-55 -38q0 -14 20 -34l49 -49h-53q-25 26 -40.5 45.5t-15.5 43.5q0 36 14.5 57.5t45.5 33t78 15t112 3.5q39 0 77.5 -13t73 -34.5t63.5 -49t50 -56
t33 -55.5t12 -48v-48h127v-45z" />
    <glyph glyph-name="u09C1" unicode="&#x9c1;" 
d="M-245 -14q33 -32 64.5 -63t57.5 -56l56 -56q-32 0 -41 3t-16 11q-18 19 -39.5 40t-39.5 38l-42 40q0 -54 -32 -77.5t-101 -23.5q-42 0 -65.5 10.5t-35.5 26.5t-15 34.5t-3 34.5q0 36 13.5 55.5t33 29t40.5 11t36 1.5q21 0 34.5 -2t24 -6t19.5 -10t21 -15v114q14 0 22 -8
t8 -22v-110zM-373 -113q55 0 75 14.5t20 46.5q0 33 -22 42.5t-64 9.5q-53 0 -70.5 -11.5t-17.5 -40.5q0 -12 2 -23.5t10 -19.5t24 -13t43 -5z" />
    <glyph glyph-name="u09C2" unicode="&#x9c2;" 
d="M-71 -189q-17 0 -27 0.5t-15.5 1t-8.5 2t-6 4.5q-12 8 -31.5 22.5t-38.5 28.5q-22 16 -46 33q0 -5 -6 -15.5t-20.5 -20.5t-39 -17.5t-62.5 -7.5q-42 0 -67 10.5t-39 26.5t-18.5 34.5t-4.5 34.5q0 40 18.5 60t42.5 28t48.5 8.5t36.5 0.5h25v81q14 0 22 -8t8 -22v-51v-45
h-55q-52 0 -76.5 -11.5t-24.5 -40.5q0 -12 3 -23.5t12 -19.5t25.5 -13t43.5 -5q58 0 77 12t19 41h31z" />
    <glyph glyph-name="u09C3" unicode="&#x9c3;" 
d="M-424 -58q36 -13 69.5 -25t65.5 -28t63.5 -37t65.5 -51h-21.5t-15 1.5t-12 4.5t-12.5 8q-31 24 -72 42t-79.5 31t-68.5 19.5t-38 6.5v51q49 36 94 65q38 25 77 45t62 21v-53q-14 -3 -41.5 -17t-56 -30.5t-51.5 -32t-29 -21.5z" />
    <glyph glyph-name="u09C7" unicode="&#x9c7;" horiz-adv-x="425" 
d="M376 182q30 0 51 -21t21 -59q0 -51 -40 -76.5t-106 -25.5q-47 0 -89 16.5t-73.5 52.5t-50.5 91.5t-19 133.5v145q0 83 36 153.5t102 112.5h-263v45h420h1h77v-45h-69q-35 0 -77.5 -22.5t-84 -63t-64.5 -96t-23 -121.5v-137q2 -64 18 -108.5t38.5 -72t51 -40t58.5 -12.5
q26 0 36 4.5t16 10.5q-22 12 -29.5 28t-7.5 37q0 30 20 50t50 20z" />
    <glyph glyph-name="u09C8" unicode="&#x9c8;" horiz-adv-x="430" 
d="M377 182q29 0 50.5 -21t21.5 -59q0 -51 -40 -76.5t-106 -25.5q-47 0 -89 16.5t-74 52.5t-51 91.5t-19 133.5v145q0 83 36.5 153.5t101.5 112.5h-263v45h420h2h11q8 1 15.5 6t7.5 19q0 39 -27.5 60t-73.5 21h-166q-22 0 -39.5 7t-33 19.5t-31.5 29t-35 35.5
q15 0 26.5 -0.5t19.5 -8.5q10 -11 19 -16.5t18 -7.5t20.5 -2.5t27.5 -0.5h140q39 0 71.5 -15.5t56 -39t36.5 -49.5t13 -47v-10h1v-45h-1h-68q-35 0 -77.5 -22.5t-79 -63t-61 -96t-24.5 -121.5v-137q0 -64 13.5 -108.5t36 -72t50.5 -40t58 -12.5q27 0 36.5 4.5t16.5 10.5
q-22 12 -30 28t-8 37q0 30 20.5 50t50.5 20z" />
    <glyph glyph-name="u09CB" unicode="&#x9cb;" horiz-adv-x="862" 
d="M376 182q30 0 51 -21t21 -59q0 -51 -40 -76.5t-106 -25.5q-47 0 -89 16.5t-73.5 52.5t-50.5 91.5t-19 133.5v145q0 83 36 153.5t102 112.5h-263v45h420h1h77v-45h-69q-35 0 -77.5 -22.5t-79 -63t-61 -96t-24.5 -121.5v-137q0 -64 13.5 -108.5t36 -72t51 -40t58.5 -12.5
q26 0 36 4.5t16 10.5q-22 12 -29.5 28t-7.5 37q0 30 20 50t50 20zM891 706h-128v-706q-20 0 -32 12t-12 33v661h-128v44h300v-44z" />
    <glyph glyph-name="u09CC" unicode="&#x9cc;" horiz-adv-x="804" 
d="M376 182q30 0 51 -21t21 -59q0 -51 -40 -76.5t-106 -25.5q-47 0 -89 16.5t-73.5 52.5t-50.5 91.5t-19 133.5v145q0 83 36 153.5t102 112.5h-263v45h420h1h77v-45h-69q-35 0 -77.5 -22.5t-79 -63t-61 -96t-24.5 -121.5v-137q0 -64 13.5 -108.5t36 -72t51 -40t58.5 -12.5
q26 0 36 4.5t16 10.5q-22 12 -29.5 28t-7.5 37q0 30 20 50t50 20zM842 705h-128v-705q-20 0 -32.5 12.5t-12.5 32.5v660h-127v45h127q3 4 3 13q0 38 -27.5 59t-73.5 21h-276q-22 0 -39.5 7t-33 19.5t-31.5 29.5t-35 36q15 0 26.5 -1t19.5 -9q10 -11 19 -16.5t18 -7.5
t20.5 -2.5t27.5 -0.5h250q38 0 70 -15t55.5 -37.5t37 -48.5t14.5 -47h128v-45z" />
    <glyph glyph-name="u09CD" unicode="&#x9cd;" 
d="M-1 -171q-3 3 -12.5 11.5t-23 21t-29.5 28t-32 30.5q-39 36 -85 80h60l189 -189q-26 0 -40 3.5t-27 14.5z" />
    <glyph glyph-name="u09A4_u09CD" unicode="&#x9ce;" horiz-adv-x="553" 
d="M342 305q22 -22 44.5 -43t40.5 -46.5t29.5 -57t11.5 -73.5v-85q-18 0 -24.5 13t-6.5 32v40q0 19 -10.5 38.5t-28 39t-39.5 39.5t-45 42l-99 98q-37 37 -62.5 61.5t-41.5 49t-23 55t-7 80.5q0 38 16 68t44.5 51t66.5 32t83 11q58 0 93 -12t53.5 -32t24.5 -46t6 -53
q0 -55 -30.5 -90t-87.5 -35q-121 0 -121 114v38q0 31 8.5 47.5t11.5 21.5q-51 -7 -87 -36.5t-36 -78.5q0 -32 10 -56t26.5 -45t38 -41.5t44.5 -43.5zM407 607q-1 56 -16.5 77t-54.5 21q-23 0 -42.5 -14.5t-19.5 -41.5v-53q0 -45 15.5 -63t60.5 -18q29 0 42.5 24.5t14.5 67.5
z" />
    <glyph glyph-name="u09D7" unicode="&#x9d7;" horiz-adv-x="264" 
d="M292 705h-128v-705q-20 0 -32.5 12.5t-12.5 32.5v660h-127v45h127q3 4 3 13q0 38 -27.5 59t-73.5 21h-276q-22 0 -39.5 7t-33 19.5t-31.5 29.5t-35 36q15 0 26.5 -1t19.5 -9q10 -11 19 -16.5t18 -7.5t20.5 -2.5t27.5 -0.5h250q38 0 70 -15t55.5 -37.5t37 -48.5t14.5 -47
h128v-45z" />
    <glyph glyph-name="u09DC" unicode="&#x9dc;" horiz-adv-x="773" 
d="M368 0q23 0 39.5 -16.5t16.5 -39.5t-16.5 -39.5t-39.5 -16.5t-40 16.5t-17 39.5t17 39.5t40 16.5zM360 705v-302q0 -14 8 -20t18 -7q2 0 5 0.5t7 0.5q19 0 41.5 23.5t44 56.5t40.5 69t33 62q33 -19 59 -41q23 -19 41.5 -44t18.5 -54v-132q0 -51 -12.5 -97.5t-41.5 -81
t-76.5 -55t-118.5 -20.5q-62 0 -107.5 16.5t-77 44.5t-52.5 65.5t-35.5 79t-24 85.5t-18.5 85q-7 29 -15 70t-16 78q-9 43 -18 88q14 0 24 -6.5t12 -19.5q10 -44 18 -82.5t20 -84.5q14 -56 31 -116.5t47.5 -111t81 -83.5t130.5 -33q54 0 92 13.5t61.5 38t34.5 58.5t11 76
v148q0 25 -7 33t-15 8q-6 0 -9 -4t-5 -7q-17 -30 -34 -58.5t-34 -50.5t-35.5 -35t-39.5 -13h-47q-17 0 -32.5 4.5t-27 14.5t-18.5 27t-7 41v273h-324v45h797v-45h-428z" />
    <glyph glyph-name="u09DD" unicode="&#x9dd;" horiz-adv-x="600" 
d="M199 -1q23 0 39.5 -16.5t16.5 -39.5t-16.5 -39.5t-39.5 -16.5q-24 0 -40.5 16.5t-16.5 39.5t16.5 39.5t40.5 16.5zM139 706v-547q0 -21 6.5 -31t17 -13.5t23 -2.5t24.5 1q22 0 49 12t55 32.5t55 47t48 55.5t33.5 58.5t12.5 56.5v37q0 11 -5 21t-16 10q0 -7 -5 -14
t-13.5 -12t-18.5 -8.5t-19 -3.5q-28 0 -45.5 19.5t-17.5 48.5q0 28 22 50.5t59 22.5q24 0 47 -7t41 -22.5t29 -40.5t11 -62v-62q0 -23 -12.5 -53.5t-34 -62.5t-49.5 -63.5t-58.5 -56t-61 -39.5t-57.5 -15h-75q-36 0 -62.5 25t-26.5 73v546h-125v44h659v-44h-490z" />
    <glyph glyph-name="u09DF" unicode="&#x9df;" horiz-adv-x="611" 
d="M252 143q23 0 39.5 -16.5t16.5 -39.5q0 -24 -16.5 -40.5t-39.5 -16.5t-39.5 16.5t-16.5 40.5q0 23 16.5 39.5t39.5 16.5zM645 750v-44h-130v-706q-20 0 -32.5 12t-12.5 33v29q0 23 -15 44.5t-53 58.5q-33 33 -74 57t-84 39t-84.5 22.5t-74.5 7.5v106l185 163l-11 11
q-23 22 -49 37t-53 24t-53.5 13t-48.5 4h-22v45h-63v44h675zM470 706h-308q23 -14 47.5 -34t46.5 -42q2 -2 16.5 -16t31 -30t29.5 -29t12 -14q-50 -42 -90 -76q-17 -15 -33.5 -29t-30 -25.5t-22.5 -19.5t-10 -10q-7 -6 -10.5 -10t-3.5 -10q0 -8 4.5 -11t15.5 -5
q68 -15 137 -54.5t125 -95.5q13 -13 23.5 -24.5t19.5 -22.5v558z" />
    <glyph glyph-name="u09E6" unicode="&#x9e6;" horiz-adv-x="833" 
d="M375 650q114 0 169.5 -65.5t55.5 -209.5t-56 -209.5t-169 -65.5t-169 65.5t-56 209.5t55.5 209.5t169.5 65.5zM365 145q40 0 71 18.5t52 51t31.5 76.5t10.5 94q0 60 -5.5 102t-21.5 68t-44.5 38t-73.5 12q-40 0 -71 -19t-52 -51.5t-31.5 -76t-10.5 -93.5q0 -60 5.5 -102
t21.5 -68.5t44.5 -38t73.5 -11.5z" />
    <glyph glyph-name="u09E7" unicode="&#x9e7;" horiz-adv-x="588" 
d="M248 593q55 -41 98.5 -71t74 -65.5t46.5 -84t16 -126.5q0 -69 -15.5 -116t-48 -76t-83.5 -41.5t-122 -12.5q-57 0 -96.5 28t-39.5 84q0 32 21.5 53.5t53.5 21.5q31 0 53 -21.5t22 -53.5q0 -24 -15 -44q0 -11 16.5 -12t41.5 -1q29 0 59 7.5t54 27.5t39 55.5t15 91.5
q0 57 -18 99.5t-67 83.5q-30 23 -73.5 55t-104.5 77q-26 19 -44 33t-30 29.5t-17.5 34.5t-5.5 47q0 54 45 54q17 0 21 -4.5t7 -14.5q2 -6 2 -46q0 -12 25.5 -36t69.5 -56z" />
    <glyph glyph-name="u09E8" unicode="&#x9e8;" horiz-adv-x="552" 
d="M400 99q23 -26 40 -44.5t28 -30.5l21 -24q-9 0 -16 -1t-13.5 -0.5t-12.5 3.5t-14 12q-103 109 -178.5 169.5t-128.5 60.5q-17 0 -31 10.5t-14 29.5v54q9 -3 16 -7.5t22.5 -8t43 -6t76.5 -2.5q88 0 127.5 18.5t39.5 67.5q0 21 -8 36.5t-22 28t-33 23.5t-41 23
q-12 6 -24 12.5t-27 14.5t-34 18t-46 25q-24 13 -41 24.5t-28 24t-16 28.5t-5 38q0 54 45 54q17 0 21.5 -4.5t7.5 -14.5q1 -2 1 -9v-28q0 -17 23.5 -30.5t63.5 -35.5q26 -15 42 -23.5t27.5 -14.5t20.5 -11.5t22 -12.5q51 -30 72 -68t21 -99q0 -84 -44.5 -119.5t-138.5 -35.5
h-7q13 -8 30 -24t36 -36.5t38.5 -42.5t37.5 -42z" />
    <glyph glyph-name="u09E9" unicode="&#x9e9;" horiz-adv-x="758" 
d="M465 624q51 0 88 -17.5t61 -49t35.5 -74t11.5 -93.5v-83q0 -42 -12 -86.5t-41 -82t-76.5 -61.5t-118.5 -24q-56 0 -98.5 16.5t-74 44.5t-54.5 65t-39.5 79t-28 86t-20.5 85q-7 29 -15 70t-16 78q-9 43 -18 88q14 0 23.5 -6.5t12.5 -19.5q9 -44 17.5 -82.5t19.5 -84.5
q14 -56 31.5 -116.5t48 -111t81 -83.5t130.5 -33q54 0 91.5 17t61.5 44t34.5 60t10.5 65v76q0 59 -11 97t-30.5 60t-45.5 30.5t-55 8.5q-16 0 -34 -3t-33 -10t-25 -18.5t-10 -28.5q27 0 48 -16t21 -48t-19.5 -53.5t-51.5 -21.5q-34 0 -56.5 22.5t-22.5 60.5v12q0 28 10 54
t31.5 45.5t55.5 31t82 11.5z" />
    <glyph glyph-name="u09EA" unicode="&#x9ea;" horiz-adv-x="662" 
d="M421 405q42 -20 68.5 -37.5t41.5 -39t20.5 -50.5t5.5 -72q0 -48 -11.5 -86t-38.5 -64.5t-71 -40.5t-109 -14q-69 0 -117.5 14t-79 39t-44.5 60.5t-14 77.5q0 47 6 80t22 57.5t42.5 45t67.5 42.5q-35 15 -57 34t-34.5 39.5t-17.5 41t-5 40.5q0 51 20 85t53 55t74.5 30
t84.5 9q35 0 72 -7.5t67 -27t49.5 -52.5t19.5 -84q0 -16 -2 -40t-13.5 -49t-34.5 -48t-65 -38zM161 590q0 -27 17 -52.5t52 -46.5q6 -3 19.5 -9.5t32.5 -15t41.5 -18t45.5 -19.5q39 9 59 26t28.5 37.5t9 43.5t0.5 44q0 57 -38 90.5t-117 33.5q-81 0 -115.5 -26t-34.5 -88z
M331 42q75 0 114 38.5t39 100.5q0 23 -1 44t-7.5 40t-19.5 34t-37 26q-15 6 -34.5 15t-40.5 18.5t-42.5 19t-40.5 17.5q-46 -15 -70 -36t-35 -46.5t-12.5 -54t-1.5 -58.5q0 -44 15 -74t41 -49t60 -27t73 -8z" />
    <glyph glyph-name="u09EB" unicode="&#x9eb;" horiz-adv-x="678" 
d="M593 486q-32 -11 -60 -35.5t-48.5 -58t-32.5 -76t-12 -89.5q0 -42 8.5 -76t27 -59t47.5 -38.5t70 -13.5q-1 -11 -6 -20q-5 -8 -14 -14t-26 -6h-134q-72 0 -135 20t-109.5 58t-73 94t-26.5 128v111q0 53 15.5 98.5t41 83.5t58.5 67t67.5 49t68.5 30.5t62 10.5h79
q-15 -32 -18 -63.5t-3 -54.5q0 -33 8.5 -55t26.5 -35t47 -18.5t71 -5.5v-32zM382 262q0 51 9.5 89.5t25 67.5t36 50t41.5 38q-28 0 -49 10t-35 26.5t-21 36t-7 39.5v57q-28 0 -69.5 -20t-80 -55.5t-66 -84t-27.5 -105.5v-111q0 -79 27 -129.5t67.5 -79.5t88.5 -40t91 -11h78
q-19 15 -38.5 30.5t-35 39.5t-25.5 60t-10 92z" />
    <glyph glyph-name="u09EC" unicode="&#x9ec;" horiz-adv-x="766" 
d="M548 578q33 -19 59 -41q23 -19 41.5 -44t18.5 -54v-132q0 -42 -12 -86.5t-41 -82t-77 -61.5t-119 -24q-56 0 -98.5 16.5t-74 44.5t-54.5 65.5t-39.5 79t-28 85.5t-20.5 85q-7 29 -15 70t-16 78q-9 43 -18 88q14 0 24 -6.5t13 -19.5q9 -44 17 -82.5t20 -84.5
q14 -56 31.5 -116.5t48 -111t80.5 -83.5t130 -33q54 0 92 17t62 44t34.5 60t10.5 65v148q0 25 -7 33t-15 8q-5 0 -8.5 -4t-5.5 -7q-17 -30 -35 -59.5t-37.5 -52t-39.5 -36.5t-41 -14h-42q-34 0 -57 29t-23 88v192q0 14 -5 20t-12 11q-13 10 -13 36t10 35t28 9q17 0 27 -9
t10 -35v-259v-27.5t2.5 -24t8.5 -17t18 -6.5q19 0 42.5 22.5t47 54.5t44 67.5t34.5 61.5z" />
    <glyph glyph-name="u09ED" unicode="&#x9ed;" horiz-adv-x="628" 
d="M511 80q13 -9 13 -36q0 -26 -10 -35t-28 -9q-17 0 -27 9t-10 35v286h-241q-1 0 -20 11.5t-41.5 32t-41 48.5t-18.5 61v43q0 21 17 58.5t48 74.5t75 64t97 27h40q18 0 40.5 -5.5t42.5 -19t33.5 -36t13.5 -56.5v-521q0 -14 5 -20.5t12 -11.5zM449 390v244q0 20 -8 32.5
t-20 20t-25 10.5t-23 3q-42 0 -81 -22t-69 -55t-48.5 -70.5t-18.5 -68.5q0 -49 17.5 -71.5t56.5 -22.5h219z" />
    <glyph glyph-name="u09EE" unicode="&#x9ee;" horiz-adv-x="732" 
d="M633 503q0 18 10.5 24.5t16.5 6.5v-37q0 -38 -12 -57.5t-30.5 -28t-40.5 -9.5t-42 -1h-49q18 -19 31 -43t13 -50v-44q0 -21 -11 -48.5t-30 -56.5t-44.5 -57.5t-54 -51t-58.5 -36.5t-59 -14h-41q-18 0 -40.5 5.5t-42.5 19t-33.5 36t-13.5 57.5l1 521q0 14 -5.5 20
t-11.5 11q-13 10 -13 36t10 35t27 9t27 -9t10 -35v-245h361h49.5t39.5 3.5t26.5 12t9.5 26.5zM224 50q21 0 46.5 11.5t52 31t51.5 45t44.5 54t31 58.5t11.5 57q0 49 -17.5 71.5t-56.5 22.5h-240v-284q0 -20 8 -33t20 -20.5t25.5 -10.5t23.5 -3z" />
    <glyph glyph-name="u09EF" unicode="&#x9ef;" horiz-adv-x="684" 
d="M441 515q30 -17 57.5 -41.5t48.5 -57t33.5 -74t12.5 -92.5q0 -75 -12.5 -124t-40.5 -77t-67.5 -39t-101.5 -11v100q0 40 -4.5 76.5t-22 64.5t-42.5 44.5t-67 16.5q-32 0 -51.5 -10t-30 -26.5t-14.5 -36.5t-4 -73q0 -19 2 -24q21 21 52 21t53 -22t22 -53q0 -17 -7 -31
t-18.5 -24.5t-26 -16t-29.5 -5.5t-34 5t-36 20.5t-29 45.5t-12 80q0 56 4.5 83.5t20.5 51.5t48 40t87 16q65 0 103.5 -22.5t63 -62t30.5 -92t6 -112.5h15q23 0 38.5 8t29.5 28t22 55.5t8 91.5q0 73 -33.5 126t-90.5 82l-144 72q-42 21 -87 42q-62 30 -93 59.5t-31 77.5
q0 27 6 40.5t29 13.5q33 0 39 -21q1 -2 1 -45q0 -16 34.5 -33t89.5 -44q60 -29 100 -50.5t73 -40.5z" />
    <glyph glyph-name="u09F3" unicode="&#x9f3;" horiz-adv-x="656" 
d="M573 215q0 -43 -15.5 -81.5t-45.5 -68.5q-28 -29 -64.5 -44.5t-75.5 -15.5h-38q-50 0 -78 26q-26 28 -26 78v368h-160v45h160v105q0 32 -23 55t-55 23h-82v45h82q25 0 47.5 -9.5t39.5 -26.5t26.5 -39.5t9.5 -47.5v-105h160v-45h-160v-368q0 -33 13 -46t46 -13h13
q30 0 58 12t50 35q42 42 47 102q-9 -4 -23 -4q-28 0 -47.5 19.5t-19.5 47.5q0 27 17.5 46t49.5 22q16 0 32.5 -4.5t30 -15.5t22 -29t9.5 -45v-21z" />
    <glyph glyph-name="quoteleft" unicode="&#x2018;" horiz-adv-x="833" 
d="M355 570q-14 0 -28.5 4.5t-26 15.5t-19 28.5t-7.5 43.5v6q0 21 6.5 40t18.5 37t29.5 37t40.5 41q5 5 9 7.5t9.5 3.5t13.5 1h22q-54 -53 -75.5 -89t-21.5 -47v-8q0 -5 3.5 -5.5t5.5 1.5q17 12 36 12q26 0 43.5 -17.5t17.5 -43.5q0 -27 -18.5 -47.5t-47.5 -20.5h-11v0z" />
    <glyph glyph-name="quoteright" unicode="&#x2019;" horiz-adv-x="833" 
d="M341 832q14 0 28.5 -4.5t26 -15.5t19 -28.5t7.5 -43.5v-6q0 -21 -6.5 -40t-18.5 -37t-29.5 -37t-39.5 -41q-5 -5 -9 -7.5t-9.5 -3.5t-14 -1h-21.5q53 53 75 89t22 47v8q0 5 -3.5 5.5t-5.5 -1.5q-17 -12 -37 -12q-25 0 -42.5 17.5t-17.5 43.5q0 27 18.5 47.5t47.5 20.5h10
v0z" />
    <glyph glyph-name="quotedblleft" unicode="&#x201c;" horiz-adv-x="833" 
d="M355 570q-14 0 -28.5 4.5t-26 15.5t-19 28.5t-7.5 43.5v6q0 21 6.5 40t18.5 37t29.5 37t40.5 41q5 5 9 7.5t9.5 3.5t13.5 1h22q-54 -53 -75.5 -89t-21.5 -47v-8q0 -5 3.5 -5.5t5.5 1.5q17 12 36 12q26 0 43.5 -17.5t17.5 -43.5q0 -27 -18.5 -47.5t-47.5 -20.5h-11z
M559 570q-14 0 -28.5 4.5t-26 15.5t-19 28.5t-7.5 43.5v6q0 21 6 40t18 37t29.5 37t40.5 41q5 5 9 7.5t9.5 3.5t13.5 1h22q-53 -53 -75 -89t-22 -47v-8q0 -5 3.5 -5.5t5.5 1.5q17 12 37 12q25 0 42.5 -17.5t17.5 -43.5q0 -27 -18.5 -47.5t-47.5 -20.5h-10z" />
    <glyph glyph-name="quotedblright" unicode="&#x201d;" horiz-adv-x="833" 
d="M545 832q14 0 28.5 -4.5t26 -15.5t19 -28.5t7.5 -43.5v-6q0 -21 -6.5 -40t-18.5 -37t-30 -37t-40 -41q-5 -5 -9 -7.5t-9.5 -3.5t-14 -1h-21.5q54 53 75.5 89t21.5 47v8q0 5 -3.5 5.5t-5.5 -1.5q-17 -12 -36 -12q-26 0 -43.5 17.5t-17.5 43.5q0 27 18.5 47.5t47.5 20.5h11
zM341 832q14 0 28.5 -4.5t26 -15.5t19 -28.5t7.5 -43.5v-6q0 -21 -6.5 -40t-18.5 -37t-29.5 -37t-39.5 -41q-5 -5 -9 -7.5t-9.5 -3.5t-14 -1h-21.5q53 53 75 89t22 47v8q0 5 -3.5 5.5t-5.5 -1.5q-17 -12 -37 -12q-25 0 -42.5 17.5t-17.5 43.5q0 27 18.5 47.5t47.5 20.5h10z
" />
    <glyph glyph-name="uni25CC" unicode="&#x25cc;" horiz-adv-x="518" 
d="M404 390q-12 17 -24.5 29.5t-28.5 23.5l29 40q40 -26 66 -65zM297 467q-11 2 -20 3.5t-19 1.5t-19 -1.5t-19 -3.5q-2 13 -4 24.5t-4 24.5q24 7 46 7q11 0 23 -1.5t26 -5.5zM477 304q0 -10 -1.5 -22.5t-4.5 -25.5l-50 10q5 20 5 37t-5 39l50 10q6 -29 6 -48zM446 190
q-14 -21 -30.5 -37t-35.5 -28q-8 10 -15 20.5t-14 20.5q16 11 30 23.5t24 28.5zM167 444q-32 -21 -54 -54q-9 7 -20 13t-21 14q26 44 66 67zM46 256q-3 14 -4 25.5t-1 22.5q0 12 1 23.5t4 24.5l50 -10q-2 -9 -3 -19.5t-1 -19.5t1 -19t3 -18zM307 91q-12 -2 -25 -3.5
t-24 -1.5q-18 0 -46 5q2 13 4 25t4 25q10 -4 19 -4.5t19 -0.5q18 0 39 6zM138 125q-20 12 -37 29t-29 37q10 8 21 14t20 13q11 -15 24.5 -29t29.5 -24z" />
    <glyph glyph-name="u09C7.init" horiz-adv-x="425" 
d="M443 705h-69q-35 0 -77.5 -22.5t-85.5 -63t-65 -96t-22 -121.5v-137q0 -64 16 -108.5t40 -72t52.5 -40t58.5 -12.5q26 0 36 4.5t16 10.5q-22 12 -29.5 28t-7.5 37q0 30 20 50t50 20t51 -21t21 -59q0 -51 -40 -76.5t-106 -25.5q-47 0 -89 16.5t-73.5 52.5t-50.5 91.5
t-19 133.5v145q0 62 21 118.5t60 99t93.5 68t121.5 25.5h77v-45z" />
    <glyph glyph-name="u09C8.init" horiz-adv-x="430" 
d="M377 182q30 0 51 -21t21 -59q0 -51 -40 -76.5t-106 -25.5q-47 0 -89 16.5t-74 52.5t-51 91.5t-19 133.5v145q0 62 21 118.5t60 99t94 68t122 25.5h11q8 1 15.5 6t7.5 19q0 39 -27.5 60t-73.5 21h-166q-22 0 -39.5 7t-33 19.5t-31 29t-34.5 35.5q14 0 25.5 -0.5t19.5 -8.5
q10 -11 19 -16.5t18 -7.5t20.5 -2.5t27.5 -0.5h140q39 0 71.5 -15.5t56 -39t36.5 -49.5t13 -47v-10h1v-45h-1h-68q-35 0 -77.5 -22.5t-85 -63t-65 -96t-22.5 -121.5v-137q0 -64 16 -108.5t40 -72t52.5 -40t58.5 -12.5q26 0 35.5 4.5t16.5 10.5q-22 12 -30 28t-8 37
q0 30 20.5 50t50.5 20z" />
    <glyph glyph-name="u09B0_u09CD" 
d="M-62 946q13 11 26.5 14.5t39.5 3.5l-259 -259h-82q72 63 131 115q25 22 49.5 43.5t44.5 39t33.5 29t16.5 14.5z" />
    <glyph glyph-name="n_fola" 
d="M-45 94q12 -3 22 -7q8 -5 15.5 -12t7.5 -20v-200q-17 0 -31 10t-14 27v6q0 21 -11 35t-31 34q-16 16 -31.5 27t-33.5 18t-41 10t-53 3q-57 0 -79.5 -17t-22.5 -52v-6q10 5 21 5q21 0 35.5 -13t14.5 -36t-15 -37t-41 -14q-32 0 -48.5 23t-16.5 56v11q0 34 7 60t24 42.5
t46.5 25t73.5 8.5q37 0 62 -7t46.5 -21.5t42.5 -36.5t51 -52v130z" />
    <glyph glyph-name="b_fola" 
d="M-187 -245q-17 0 -31 9.5t-14 26.5q0 6 -17.5 20t-51.5 28.5t-83.5 25.5t-112.5 11v104q23 23 58.5 47t75.5 43.5t79 32t68 12.5q8 -5 14 -12q5 -6 10 -14t5 -19v-315zM-232 46q-25 -4 -52 -14t-54 -24t-53 -31t-48 -35q-6 -4 -7.5 -9t-1.5 -9q0 -7 5.5 -8.5t10.5 -3.5
q24 -5 53 -12.5t57 -17.5t52 -22.5t38 -26.5v213z" />
    <glyph glyph-name="r_fola" 
d="M0 -16v-30q-19 0 -33 12q-11 11 -22.5 17.5t-29 10.5t-42 5t-60.5 1h-129q-50 0 -86.5 7.5t-60.5 26t-35.5 49t-11.5 76.5v60q12 -2 22 -9.5t10 -24.5v-33q0 -29 11 -47t32 -28t51 -13.5t68 -3.5h134q25 0 41.5 -2t30.5 -7.5t28.5 -14.5t36.5 -23v157q20 0 32.5 -7
t12.5 -28v-151z" />
    <glyph glyph-name="l_fola" 
d="M-45 89q12 -3 22 -8q8 -5 15.5 -12.5t7.5 -18.5v-195q-17 0 -31 10t-14 27v38q0 27 -17 50.5t-52 23.5q-19 0 -34 -1t-25.5 -5.5t-16.5 -15t-6 -29.5v-49q-15 0 -26.5 8t-11.5 19q0 13 -5.5 26t-17 23.5t-30.5 17t-46 6.5q-43 0 -60.5 -13t-17.5 -35v-6q12 5 22 5
q20 0 35 -13t15 -36t-15 -37t-42 -14q-31 0 -47.5 23t-16.5 56v11q0 22 5.5 42t19.5 36t37.5 25.5t58.5 9.5q32 0 64 -18t47 -47q0 31 20.5 48t46.5 17h22q15 0 29 -6.5t26 -15.5t22 -19t17 -16v88z" />
    <glyph glyph-name="z_fola" horiz-adv-x="314" 
d="M339 705h-68q-11 -3 -21.5 -9t-19.5 -17q-17 -20 -29 -37.5t-19.5 -34.5t-10 -35.5t-0.5 -41.5q1 -19 3.5 -49t4.5 -65.5t4.5 -73t4.5 -71t4 -60.5t3 -41q5 -64 -9 -108t-40 -71.5t-60.5 -39.5t-71.5 -12q-13 0 -21 5t-13 11q-6 7 -9 16q45 0 76 13.5t49.5 37.5t26 57
t5.5 72q-2 28 -4.5 72t-5.5 89.5t-6 85t-4 58.5q-2 16 -2 37t3 42t8.5 41t16.5 34q22 29 39.5 52.5t34.5 42.5h-249v45h380v-45z" />
    <glyph glyph-name="ukar.top" 
d="M-252 0q16 -17 46 -48t60 -63q35 -37 75 -78q-26 0 -39.5 2.5t-23.5 13.5q-18 19 -38.5 41t-37.5 41l-40 44q0 -60 -32 -85.5t-100 -25.5q-42 0 -65.5 10.5t-35.5 26.5t-15 34.5t-3 34.5q0 36 15.5 55.5t36.5 29t42.5 11t33.5 1.5q32 0 63 -8t58 -37zM-377 -113
q54 0 74.5 14t20.5 57q0 27 -22 34.5t-64 7.5q-54 0 -71 -11.5t-17 -40.5q0 -12 2 -23.5t10 -19.5t24 -13t43 -5z" />
    <glyph glyph-name="Ukar.top" 
d="M-248 45v-45h-65q-52 0 -76.5 -11.5t-24.5 -40.5q0 -12 3 -23.5t12 -19.5t25.5 -13t43.5 -5q58 0 77 11.5t19 31.5h31l160 -119q-17 0 -27 0.5t-15.5 1t-8.5 2t-6 4.5q-12 8 -29 21t-34 25q-19 14 -39 28q0 -5 -6 -14t-20.5 -17t-39 -14t-62.5 -6q-42 0 -67 10.5
t-39 26.5t-18.5 34.5t-4.5 34.5q0 40 18.5 60t42.5 28t48.5 8.5t36.5 0.5h65z" />
    <glyph glyph-name="u0995_u09CD_u0995" horiz-adv-x="1209" 
d="M368 705v-66q33 0 67 -14.5t62.5 -38t46.5 -53t18 -59.5v-30q0 -28 -7.5 -51t-19.5 -39.5t-27.5 -25.5t-31.5 -9q-27 0 -44 15t-17 40q0 23 14.5 39t37.5 16q17 0 31.5 -11.5t14.5 -27.5q12 0 16.5 17t4.5 37q0 28 -14 51.5t-37 40t-53 25.5t-62 9v-410q-19 0 -32 11.5
t-13 31.5v11q0 22 -11 37t-35 38q-30 31 -62 50t-61 29.5t-53 14.5t-39 4v119q24 24 56 47.5t67.5 42t71.5 30.5t66 13v66h-355v45h601v-45h-201zM323 570q-21 -1 -47.5 -9.5t-53.5 -22t-51.5 -30.5t-42.5 -35q-5 -5 -9 -12t-4 -13q0 -5 2 -11t11 -10q59 -23 104.5 -59.5
t90.5 -81.5v284zM894 705v-75q47 0 93.5 -21t84 -54t61 -73t23.5 -77v-37q0 -35 -9.5 -60t-23.5 -41t-32 -23.5t-34 -7.5q-29 0 -46.5 15.5t-17.5 41.5q0 23 15 39.5t39 16.5q18 0 33 -11.5t15 -28.5q12 0 20.5 16.5t8.5 42.5q0 37 -21 72t-54 62t-74 43t-81 16v-561
q-21 0 -33 12.5t-12 32.5v34q0 27 -14 49t-44 51q-76 77 -146.5 113.5t-133.5 36.5l39 109q3 4 1 9.5t-5 11.5t-5 11.5t2 9.5q32 27 71 53.5t80.5 47.5t81.5 34.5t73 14.5v75h-413v45h808v-45h-350zM849 561q-27 -1 -63 -14.5t-73 -33.5t-71 -44.5t-56 -46.5q-6 -6 -11 -13
t-5 -15t3 -13.5t14 -9.5q36 -15 68.5 -35.5t59.5 -42t48 -42t35 -33.5q14 -14 27 -28.5t24 -29.5v401z" />
    <glyph glyph-name="u0995_u09CD_u099F" horiz-adv-x="1031" 
d="M569 705v-546q0 -21 6.5 -31t16.5 -13.5t22.5 -2.5t24.5 1q22 0 49 12t55 32.5t54.5 47t47.5 55.5t33.5 58.5t12.5 56.5v37q0 12 -4.5 21.5t-15.5 9.5q0 -7 -5 -13.5t-13.5 -12t-18.5 -8.5t-19 -3q-28 0 -46 19.5t-18 47.5t22.5 50.5t59.5 22.5q24 0 47 -7t41 -22.5
t29 -40.5t11 -62v-62q0 -23 -12.5 -53.5t-34 -62.5t-49.5 -63t-58.5 -55.5t-61 -39.5t-57.5 -15h-74q-37 0 -63.5 24t-26.5 73v545h-126v45h489q9 0 19.5 4.5t10.5 21.5q0 38 -27 59t-74 21h-276q-22 0 -39 7t-33 19.5t-31.5 29.5t-34.5 36q15 0 26 -1t19 -9
q10 -11 19 -16.5t18 -7.5t20.5 -2.5t28.5 -0.5h250q38 0 70.5 -15.5t56 -38.5t37 -49t13.5 -47v-11h98v-45h-489zM357 705v-66q33 0 67 -14.5t62.5 -38t46.5 -53t18 -59.5v-30q0 -28 -7.5 -51t-19.5 -39.5t-27 -25.5t-31 -9q-27 0 -44.5 15t-17.5 40q0 23 14.5 39t37.5 16
q18 0 32 -11.5t14 -27.5q13 0 17 17t4 37q0 28 -14 51.5t-37 40t-53 25.5t-62 9v-410q-19 0 -32 11.5t-13 31.5v11q0 22 -11 37t-35 38q-30 31 -62 50t-61 29.5t-53 14.5t-39 4v119q24 24 56.5 47.5t67.5 42t71 30.5t66 13v66h-355v45h601v-45h-201zM312 570
q-21 -1 -47.5 -9.5t-53.5 -22t-51.5 -30.5t-42.5 -35q-5 -5 -9 -12t-4 -13q0 -5 2.5 -11t11.5 -10q35 -13 60 -27.5t46.5 -31.5t42 -38t45.5 -46v286z" />
    <glyph glyph-name="u0995_u09CD_u09A4" horiz-adv-x="1078" 
d="M1124 750v-45h-753v45h753zM812 623q51 0 88.5 -17t61.5 -44t35.5 -61.5t11.5 -70.5v-116q0 -51 -13 -97t-42.5 -80t-78 -54t-119.5 -20q-64 0 -112.5 29t-83.5 74t-58.5 100.5t-37.5 109.5h29q17 -51 41 -95t56.5 -75.5t73.5 -49.5t92 -18q54 0 92.5 13t63 37t36 58
t11.5 76v108q0 43 -13 72.5t-33 48t-46 26.5t-51 8q-29 0 -53.5 -7.5t-36.5 -18.5q-7 -7 -9 -13.5t-2 -10.5q26 0 47.5 -16t21.5 -48t-20 -53.5t-52 -21.5q-33 0 -55.5 22.5t-22.5 61.5v11q0 28 10 52t31 42t55 28t82 10zM357 705v-66h1q32 0 66.5 -14.5t62.5 -38t46 -53
t18 -59.5v-30q0 -28 -7.5 -51t-19.5 -39.5t-27 -25.5t-31 -9q-27 0 -44.5 15t-17.5 40q0 23 14.5 39t37.5 16q18 0 32.5 -11.5t14.5 -27.5q12 0 16 17t4 37q0 28 -14 51.5t-37 40t-52.5 25.5t-61.5 9h-1v-410q-18 0 -31.5 11.5t-13.5 31.5v11q0 22 -11 37t-34 38
q-31 31 -63 50t-61 29.5t-53 14.5t-39 4v119q24 24 56.5 47.5t67.5 42t71 30.5t66 13v66h-355v45h601v-45h-201zM312 570q-21 -1 -47.5 -9.5t-53.5 -22t-51.5 -30.5t-42.5 -35q-5 -5 -9 -12t-4 -13q0 -5 2.5 -11t11.5 -10q35 -13 60 -27.5t46.5 -31.5t42 -38t45.5 -46v286z
" />
    <glyph glyph-name="u0995_u09CD_u09A4_u09F0_u09CD" horiz-adv-x="1078" 
d="M357 705v-66q33 0 67 -14.5t62.5 -38t46.5 -53t18 -59.5v-30q0 -28 -7.5 -51t-19.5 -39.5t-27 -25.5t-31 -9q-27 0 -44.5 15t-17.5 40q0 23 14.5 39t37.5 16q18 0 32 -11.5t14 -27.5q12 0 16.5 17t4.5 37q0 28 -14 51.5t-37 40t-53 25.5t-62 9v-410q-19 0 -32 11.5
t-13 31.5v11q0 22 -11 37t-35 38q-30 31 -62 50t-61 29.5t-53 14.5t-39 4v119q24 24 56 47.5t67.5 42t71.5 30.5t66 13v66h-355v45h601v-45h-201zM312 570q-21 -1 -47.5 -9.5t-53.5 -22t-51.5 -30.5t-42.5 -35q-5 -5 -9 -12t-4 -13q0 -5 2.5 -11t10.5 -10q35 -13 60.5 -27.5
t47 -31.5t42 -38t45.5 -46v286zM493 377q19 -42 43 -77t56 -60t72 -38.5t91 -13.5q108 0 155 50t47 134v58q0 43 -13 72.5t-33 48t-46 26.5t-51 8q-28 0 -45.5 -6.5t-29.5 -17.5q-8 -7 -9.5 -14t-1.5 -12q26 0 47.5 -16t21.5 -48t-20 -53.5t-51 -21.5q-34 0 -56.5 22.5
t-22.5 61.5v11q0 28 7.5 52t26.5 42t50.5 28t79.5 10q51 0 88 -17t61 -44t35.5 -61.5t11.5 -70.5v-66q0 -60 -18 -112t-60 -87v-181v-30q-20 0 -33 13q-11 10 -22.5 16.5t-28.5 10.5t-41.5 5t-60.5 1h-119q-40 0 -72 7.5t-54.5 26t-35 49.5t-12.5 77v60q12 -2 21.5 -10
t9.5 -24v-34q0 -29 11.5 -46.5t31.5 -28t45.5 -14t54.5 -3.5h123q25 0 41.5 -2t30.5 -7.5t28.5 -14.5t36.5 -22v123q-26 -11 -58 -17.5t-71 -6.5q-60 0 -104 20t-77.5 54t-59.5 80t-50 98zM1100 750v-45h-817v45h817z" />
    <glyph glyph-name="u0995_u09CD_u09A4_u09AC_u09CD" horiz-adv-x="744" 
d="M454 705v-75q47 0 93.5 -21t84 -54t61 -73t23.5 -77v-37q0 -35 -9.5 -60t-23.5 -41t-32 -23.5t-34 -7.5q-28 0 -46 15.5t-18 41.5q0 23 15.5 39.5t38.5 16.5q18 0 33 -11.5t15 -28.5q13 0 21.5 16.5t8.5 42.5q0 37 -21 72t-54.5 62t-74.5 43t-81 16v-561q-21 0 -33 12.5
t-12 32.5v34q0 27 -14 48.5t-43 51.5q-38 38 -79 66.5t-81 47t-77 27.5t-68 9v121q30 30 76 61.5t97 57.5t101 43t88 17v76h-437v45h807v-45h-325zM409 561q-27 -1 -66.5 -14.5t-81 -33.5t-79.5 -44.5t-61 -46.5q-6 -6 -11 -13t-5 -15t3 -13.5t14 -10.5q89 -35 146 -77
t90 -75q30 -30 51 -58v401zM409 194q12 -3 22 -7q8 -5 15.5 -12t7.5 -20v-200q-17 0 -31 10t-14 27v6q0 21 -11 35t-31 34q-16 16 -31.5 27t-33.5 18t-41 10t-53 3q-57 0 -79.5 -17t-22.5 -52v-6q10 5 21 5q21 0 35.5 -13t14.5 -36t-15 -37t-41 -14q-32 0 -48.5 23t-16.5 56
v11q0 34 7 60t24 42.5t46.5 25t73.5 8.5q37 0 62 -7t46.5 -21.5t42.5 -36.5t51 -52v130z" />
    <glyph glyph-name="u0995_u09CD_u09A8" horiz-adv-x="790" 
d="M462 -45q-17 0 -31 9.5t-14 26.5q0 6 -17.5 21.5t-51.5 32t-83.5 29t-112.5 12.5v94q23 23 55.5 47t68.5 44t72 32.5t65 12.5h4q21 0 33 -12.5t12 -32.5v-316zM417 254q-22 0 -49 -9.5t-55 -25t-55 -34.5t-48 -38q-5 -5 -7 -6.5t-2 -6.5q0 -7 5.5 -8.5t10.5 -3.5
q24 -5 53 -13.5t57 -20.5t52 -26t38 -28v220zM417 561q-27 -1 -66.5 -14.5t-81.5 -33.5t-80 -44.5t-60 -46.5q-6 -6 -11 -13t-5 -15t3 -13.5t14 -10.5q63 -25 109.5 -53.5t79.5 -55.5l-27 -24q-59 44 -116.5 66t-105.5 25v137q32 28 76.5 57.5t92.5 53t95 38.5t83 15v76
h-438v45h817v-45h-334v-75q47 0 93.5 -21t84 -54t61 -73t23.5 -77v-37q0 -35 -9.5 -60t-23.5 -41t-32 -23.5t-34 -7.5q-29 0 -46.5 15.5t-17.5 41.5q0 23 15.5 39.5t38.5 16.5q18 0 33 -11.5t15 -28.5q12 0 21 16.5t9 42.5q0 37 -21 72t-54.5 62t-74.5 43t-81 16v-561
q-21 0 -33 12.5t-12 32.5v516z" />
    <glyph glyph-name="u0995_u09CD_u09AE" horiz-adv-x="1099" 
d="M367 705v-66h1q32 0 65.5 -14.5t60.5 -38t44.5 -53t17.5 -59.5v-30q0 -28 -7.5 -48.5t-19 -34t-26 -20.5t-28.5 -7q-25 0 -40.5 13.5t-15.5 36.5q0 21 13.5 35.5t33.5 14.5q16 0 29 -10.5t13 -24.5q11 0 15.5 12.5t4.5 32.5q0 28 -13 51.5t-35 40t-51 25.5t-61 9h-1v-410
q-18 0 -31.5 11.5t-13.5 31.5v11q0 22 -11 37t-34 38q-31 31 -64.5 50t-64.5 29.5t-56.5 14.5t-40.5 4v119q24 24 58 47.5t71 42t74.5 30.5t67.5 13v66h-390v45h636v-45h-201zM322 570q-21 -1 -49 -9.5t-56.5 -22t-55 -30.5t-44.5 -35q-5 -5 -9 -12t-4 -13q0 -5 2.5 -11
t11.5 -10q35 -13 61.5 -27.5t50 -31.5t45.5 -38t47 -46v286zM1122 705h-131v-705q-21 0 -33 12.5t-12 32.5v32q0 28 -2 46t-7 31.5t-15 25.5t-25 27q-26 26 -45 44t-33 29q-10 8 -22.5 15t-23.5 11t-18.5 4t-7.5 -5q0 -35 -24 -59t-58 -24q-35 0 -59 24t-24 59q0 34 24 58
t59 24h19t20 -2q6 22 6 74q0 28 -2.5 47t-9 34t-17.5 28.5t-29 30.5q-17 17 -45.5 35.5t-55.5 34.5q-32 18 -67 36h-62v45h700v-45zM946 705h-335q13 -9 26 -19q11 -8 23.5 -18t22.5 -20q12 -12 23.5 -24.5t20.5 -28.5t14.5 -37t5.5 -49v-140q46 -25 93 -65.5t84 -78.5
q6 -5 11.5 -11t10.5 -12v503z" />
    <glyph glyph-name="u0995_u09F0_u09CD" horiz-adv-x="744" 
d="M454 27v-27q-34 0 -44 31q-4 13 -13 23.5t-25.5 18t-43 11t-65.5 3.5h-119q-56 0 -94.5 11t-62 34.5t-33.5 60t-10 87.5v70q12 -2 21.5 -9.5t9.5 -24.5v-43q0 -29 8.5 -52t28 -39.5t52 -25.5t80.5 -9h107q30 0 51.5 -4.5t40.5 -15t39 -28.5t47 -45q6 -6 10.5 -11t7.5 -9z
M454 705v-75q47 0 93.5 -21t84 -54t61 -73t23.5 -77v-37q0 -35 -9.5 -60t-23.5 -41t-32 -23.5t-34 -7.5q-28 0 -46 15.5t-18 41.5q0 23 15.5 39.5t38.5 16.5q18 0 33 -11.5t15 -28.5q13 0 21.5 16.5t8.5 42.5q0 37 -21 72t-54.5 62t-74.5 43t-81 16v-561q-21 0 -33 12.5
t-12 32.5v34q0 27 -14 48.5t-43 51.5q-38 38 -79 66.5t-81 47t-77 27.5t-68 9v121q30 30 76 61.5t97 57.5t101 43t88 17v76h-437v45h807v-45h-325zM409 561q-27 -1 -66.5 -14.5t-81 -33.5t-79.5 -44.5t-61 -46.5q-6 -6 -11 -13t-5 -15t3 -13.5t14 -10.5q89 -35 146 -77
t90 -75q30 -30 51 -58v401z" />
    <glyph glyph-name="u0995_u09CD_u09B2" horiz-adv-x="769" 
d="M411 144q11 -17 21 -33q8 -14 15 -29.5t7 -26.5v-55q-17 0 -31 10t-14 27v38q0 13 -5.5 27.5t-16 26.5t-24.5 20t-31 8q-38 0 -56 -10t-18 -48v-49q-15 0 -26.5 8t-11.5 19q0 13 -5.5 27t-17 25t-30.5 18.5t-46 7.5q-43 0 -60.5 -12t-17.5 -42v-6q12 5 21 5
q21 0 35.5 -13t14.5 -36t-14.5 -37t-41.5 -14q-31 0 -48 23.5t-17 55.5v11q0 28 6 49.5t20 36.5t37.5 22.5t58.5 7.5q16 0 32.5 -5t31.5 -14t27 -21.5t19 -27.5q0 32 21 46.5t47 14.5h22q15 0 29.5 -6t27 -14.5t22.5 -18t17 -16.5zM454 705v-75q47 0 93.5 -21t84 -54t61 -73
t23.5 -77v-37q0 -35 -9.5 -60t-23.5 -41t-32 -23.5t-34 -7.5q-28 0 -46 15.5t-18 41.5q0 23 15.5 39.5t38.5 16.5q18 0 33 -11.5t15 -28.5q13 0 21.5 16.5t8.5 42.5q0 37 -21 72t-54.5 62t-74.5 43t-81 16v-561q-21 0 -33 12.5t-12 32.5v34q0 27 -14 48.5t-43 51.5
q-38 38 -79 66.5t-81 47t-77 27.5t-68 9v121q30 30 76 61.5t97 57.5t101 43t88 17v76h-437v45h807v-45h-325zM409 561q-27 -1 -66.5 -14.5t-81 -33.5t-79.5 -44.5t-61 -46.5q-6 -6 -11 -13t-5 -15t3 -13.5t14 -10.5q89 -35 146 -77t90 -75q30 -30 51 -58v401z" />
    <glyph glyph-name="u0995_u09AC_u09CD" horiz-adv-x="829" 
d="M543 705v-97h29q38 0 75 -10.5t66 -32t47 -54t18 -75.5v-50q0 -31 -9 -54t-24 -38t-34 -22.5t-39 -7.5v1q-23 1 -40.5 17t-17.5 39t16.5 39.5t39.5 16.5q18 0 32 -9.5t21 -25.5q11 6 17.5 21t6.5 38q0 42 -13 68.5t-37 42.5t-57.5 22t-73.5 6h-23v-540q-19 0 -32 10
t-13 30v93q0 18 -2.5 29.5t-9 21t-49 51.5t-61.5 56t-45 14q0 -34 -17 -56t-51 -22q-28 0 -47.5 20t-19.5 48t19.5 47.5t47.5 19.5h16.5t13.5 -1v64q0 22 -10.5 43t-27 37t-35.5 25.5t-35 9.5h-91q-21 0 -35.5 14.5t-14.5 35.5v18h106v33q-12 32 -22 48t-28 16h-108v45h856
v-45h-305zM498 705h-317q6 -21 6 -49v-48q12 0 25 -5t25.5 -12.5t23.5 -16t18 -15.5q12 -12 21.5 -23.5t16 -26t10.5 -32.5t4 -42v-82q31 -5 53.5 -21.5t32.5 -26.5l15 -15t25.5 -26t25.5 -26t15 -16v318h-85q-21 0 -35.5 14.5t-14.5 35.5v18h135v97z" />
    <glyph glyph-name="u0995_u09CD_u09B7" horiz-adv-x="848" 
d="M561 705v-97h29q38 0 75 -10.5t66 -32t47 -54t18 -75.5v-50q0 -31 -9 -54t-24 -38t-34 -22.5t-39 -7.5v1q-23 1 -40.5 17t-17.5 39t16.5 39.5t39.5 16.5q18 0 32 -9.5t21 -25.5q11 6 17.5 21t6.5 38q0 42 -13 68.5t-37 42.5t-57 22t-73 6h-24v-540q-19 0 -32 10t-13 30
v128q0 18 -2.5 29.5t-9 21t-17 19.5t-25.5 25q-5 6 -8.5 9t-6.5 6l-7 7l-11 11q-16 16 -35 32.5t-35 16.5q0 -34 -17 -56t-51 -22q-28 0 -47.5 20t-19.5 48t19.5 47.5t47.5 19.5h16.5t13.5 -1v24q0 22 -10.5 43t-27 37t-35.5 25.5t-35 9.5h-110q-21 0 -35.5 14.5t-14.5 35.5
v18h120v33q0 32 -13.5 48t-61.5 16h-117v45h895v-45h-315zM516 705h-307q6 -21 6 -49v-48q12 0 25 -5t25.5 -12.5t23.5 -16t18 -15.5q12 -12 21.5 -23.5t16 -26t10.5 -32.5t4 -42v-42q5 0 16 -7t22.5 -17t22 -19.5t15.5 -14.5l15 -15t25.5 -26t25.5 -26t15 -16v288h-85
q-21 0 -35.5 14.5t-14.5 35.5v18h135v97zM475 96q-30 30 -50 48.5t-37 28t-34 12.5t-41 3q-18 0 -32 -3t-23.5 -12.5t-14 -28t-4.5 -48.5v-18.5t1.5 -19.5t5.5 -15.5t12 -6.5q0 20 13.5 33t33.5 13q24 0 38.5 -15.5t14.5 -41.5q0 -28 -19.5 -44.5t-57.5 -16.5
q-44 0 -72.5 32.5t-28.5 101.5t27 100.5t90 31.5q28 0 46 -1.5t35 -9t37 -24t50 -46.5q4 -5 6 -13.5t3 -17.5q1 -11 1 -22z" />
    <glyph glyph-name="u0995_u09CD_u09B7_u09CD_u09A3" horiz-adv-x="1143" 
d="M1166 750v-45h-130v-705q-21 0 -33 12.5t-12 32.5v32q0 28 -2 46t-7 31.5t-15 25.5t-25 27q-26 26 -45 44t-33 29q-10 8 -22.5 15t-23.5 11t-18.5 4t-7.5 -5q0 -35 -24 -59t-58 -24q-35 0 -59 24t-24 59q0 34 24 58t59 24h18.5t20.5 -2q6 22 6 74q0 28 -2.5 47t-9 34
t-17.5 28.5t-29 30.5q-26 26 -55.5 54t-59.5 42v55h584zM991 705h-325q10 -9 21 -19q9 -8 20 -18t21 -20q12 -12 23.5 -24.5t20.5 -28.5t14.5 -37t5.5 -49v-140q46 -25 93 -66t84 -78q6 -5 11.5 -11t10.5 -12v503zM454 705v-77h24q30 0 59.5 -8.5t53 -26t38 -43.5t14.5 -60
v-40q0 -25 -8 -43t-21 -30t-29 -18t-32 -6h-1h-2q-20 0 -35 15t-15 35q0 21 15 35.5t35 14.5q17 0 30 -9.5t18 -25.5q15 13 15 44q0 33 -10 54t-28 32.5t-44 15.5t-58 4h-19v-427q-26 0 -35.5 12t-9.5 29v64q0 14 -2 23.5t-7 17t-13.5 16l-20.5 20.5l-26 26q-13 13 -26 24.5
t-26 11.5v-14q0 -25 -17.5 -42.5t-42.5 -17.5t-42.5 17.5t-17.5 42.5t17.5 42.5t42.5 17.5q2 0 11.5 0.5t14.5 -0.5v40q0 13 -8 30t-20 32t-26.5 25t-27.5 10h-61q-17 0 -28.5 11.5t-11.5 28.5v20h74v26q0 26 -11 38.5t-25 12.5h-141v45h675v-45h-189zM409 705h-240
q4 -15 4 -39v-39q19 0 38.5 -14t30.5 -25q19 -19 33 -44.5t14 -54.5v-65q17 -5 32 -18t23 -21l12.5 -12.5l20.5 -20.5l20.5 -20.5t11.5 -12.5v249h-68q-17 0 -28.5 11.5t-11.5 28.5v20h108v77z" />
    <glyph glyph-name="u0995_u09CD_u09B7_u09CD_u09AE" horiz-adv-x="1119" 
d="M367 705v-66q33 0 66.5 -14.5t60.5 -38t44 -53t17 -59.5v-30q0 -28 -7 -48.5t-18.5 -34t-26 -20.5t-29.5 -7q-25 0 -40.5 13.5t-15.5 36.5q0 21 13.5 35.5t33.5 14.5q17 0 29.5 -10.5t12.5 -24.5q11 0 15.5 12.5t4.5 33.5q0 28 -13 51t-35 39.5t-51 25.5t-61 9v-410
q-19 0 -32 11.5t-13 31.5v11q0 22 -11 37t-35 39q-31 30 -64.5 49t-64 29.5t-56 14.5t-40.5 4v120q24 24 57.5 47t71 42t75 31t67.5 12v66h-330v45h576v-45h-201zM322 570q-21 -1 -49 -9.5t-57 -22t-55.5 -30.5t-44.5 -35q-5 -5 -8.5 -12t-3.5 -13q0 -5 2 -11t11 -9
q35 -13 62 -28t50.5 -32t45.5 -38t47 -46v286zM1149 750v-45h-130v-705q-21 0 -33 12.5t-12 32.5v318q0 25 -3 42t-9 30t-14.5 23t-20.5 22q-14 14 -29.5 21t-31.5 -8q-2 -2 -15.5 -17t-33 -36.5t-42 -47t-43.5 -48.5t-37.5 -40.5t-22.5 -23.5q-15 -14 -26.5 -20.5t-22 -5
t-22.5 10.5t-27 25q-10 11 -21 22l-20 20q-11 11 -22 21v46q16 -16 29 -28q11 -11 20.5 -21t11.5 -12q9 -9 23.5 -11t28.5 12q5 5 20.5 21.5t29.5 33.5t17.5 31t3.5 34v34q0 36 -10 60.5t-36 50.5l-32 32t-35.5 31.5t-39.5 25t-43 12.5v45h650zM974 705h-351q10 -9 21 -19
q9 -8 19 -17.5t19 -17.5q23 -24 33.5 -50t10.5 -64v-85q22 23 46 49.5t44 48.5t34.5 26t28.5 -5t31.5 -29t43.5 -47q5 -6 10 -11.5t10 -12.5v234z" />
    <glyph glyph-name="u0995_u09CD_u09B7_u09F0_u09CD" horiz-adv-x="650" 
d="M509 750h175v-45h-130v-705q-21 0 -33 12.5t-12 32.5v28q-3 24 -17.5 46t-50.5 59q-33 33 -75.5 56.5t-87.5 39t-88 23t-76 7.5v143q37 0 81 8.5t82 26.5t63.5 45t25.5 63q0 20 -2 38t-15 32q-5 4 -6 5l-2 2t-3 3.5t-9 8.5q0 -17 -14.5 -36.5t-38.5 -36t-65 -28
t-77 -11.5q-52 0 -79 20t-27 58q0 23 17 41t40 18q31 0 43 -18.5t12 -47.5q28 0 58 8.5t44.5 20.5t22 25.5t7.5 23.5v34q17 0 26.5 -3.5t23.5 -16.5q6 -7 16.5 -17.5l20.5 -20.5q11 -12 25 -25q12 -12 22 -30.5t10 -42.5v-51q0 -34 -21.5 -60.5t-53.5 -46t-70.5 -33
t-72.5 -20.5q-15 -5 -15 -19q0 -12 9 -16.5t17 -6.5q29 -9 61.5 -22t66 -30.5t66.5 -41t63 -53.5q12 -11 23 -23t20 -25v604zM554 27v-27q-33 0 -43 31q-4 13 -13 23.5t-26 18t-43.5 11t-65.5 3.5h-159q-56 0 -94 11t-61.5 34.5t-34 60t-10.5 87.5v70q12 -2 22 -9.5
t10 -24.5v-43q0 -29 8 -52t27.5 -39.5t52 -25.5t80.5 -9h148q30 0 51.5 -4.5t40.5 -15t38.5 -28.5t46.5 -45l11 -11t8 -9q4 -4 6 -7z" />
    <glyph glyph-name="u0995_u09CD_u09B7_u09AC_u09CD" horiz-adv-x="650" 
d="M511 144q11 -17 21 -33q8 -14 15 -29.5t7 -26.5v-54q-17 0 -31 9.5t-14 26.5v38q0 13 -5.5 27.5t-15.5 26.5t-24.5 20t-31.5 8q-38 0 -56 -10t-18 -48v-49q-14 0 -26 8t-12 19q0 13 -5.5 27t-17 25t-30.5 18.5t-46 7.5q-43 0 -60.5 -12t-17.5 -41v-7q12 5 22 5
q20 0 35 -13t15 -36t-15 -37t-42 -14q-31 0 -47.5 23.5t-16.5 55.5v12q0 27 5.5 48.5t19.5 36.5t37.5 22.5t58.5 7.5q32 0 64 -19.5t47 -48.5q0 32 20.5 46.5t46.5 14.5h22q15 0 29.5 -6t27 -14.5t22.5 -18t17 -16.5zM684 750v-45h-130v-705q-21 0 -33 12.5t-12 32.5v28
q-3 24 -17.5 46t-50.5 59q-33 33 -75.5 56.5t-87.5 39t-88 23t-76 7.5v143q37 0 81 8.5t82 26.5t63.5 45t25.5 63q0 20 -2 38t-15 32q-5 4 -6 5l-2 2t-3 3.5t-9 8.5q0 -17 -14.5 -36.5t-38.5 -36t-62 -28t-74 -11.5q-52 0 -79 20t-27 58q0 23 17 41t40 18q31 0 43 -18.5
t12 -47.5q28 0 55 8.5t41.5 20.5t22 25.5t7.5 23.5v34q17 0 26.5 -3.5t23.5 -16.5q6 -7 16.5 -17.5l20.5 -20.5q11 -12 25 -25q12 -12 22 -30.5t10 -42.5v-51q0 -34 -21.5 -60.5t-53.5 -46t-70.5 -33t-72.5 -20.5q-15 -5 -15 -19q0 -12 9 -16.5t17 -6.5q29 -9 61.5 -22
t66 -30.5t66.5 -41t63 -53.5q12 -11 23 -23t20 -25v604h175z" />
    <glyph glyph-name="u0995_u09CD_u09B8" horiz-adv-x="1017" 
d="M1038 750v-45h-130v-705q-21 0 -33 12.5t-12 32.5v429q0 21 -3 36.5t-10 31t-18 32.5t-27 40q-21 30 -38 47t-36 26t-44.5 11t-63.5 2q-43 0 -69.5 -7t-42 -20.5t-22 -35t-7.5 -49.5q-1 -10 3 -15.5t16 -5.5h93q28 0 52 -10t41.5 -27.5t27.5 -40t10 -46.5
q0 -32 -10 -61.5t-43 -61.5l-54 -54h-99l117 115q4 4 11 12t14.5 18.5t13 22t5.5 23.5q0 21 -6.5 33t-18.5 18t-27.5 7.5t-33.5 1.5h-182v51q0 39 6.5 72.5t28.5 58t63.5 38t112.5 13.5q46 0 75.5 -6.5t51.5 -20.5t41 -37.5t43 -57.5q8 -13 15.5 -24t13.5 -22v168h175z
M448 529q-7 12 -17 26q-8 12 -19 27t-22 32q-21 30 -35.5 47t-29 26t-32.5 11t-46 2q-33 0 -53.5 -7t-33 -20.5t-18 -35t-6.5 -49.5q0 -10 4 -15.5t15 -5.5h43q28 0 52 -10t41.5 -27.5t27.5 -40t10 -46.5q0 -32 -10 -61.5t-42 -61.5l-35 -34h-99l98 95q3 4 10.5 12
t14.5 18.5t12.5 22t5.5 23.5q0 21 -6.5 33t-18.5 18t-27.5 7.5t-33.5 1.5h-132v51q0 39 5.5 72.5t24.5 58t55 38t96 13.5q36 0 58 -6.5t39.5 -20.5t33.5 -37.5t40 -57.5q4 -6 15 -21.5t22 -32t21 -31t13 -19.5z" />
    <glyph glyph-name="u0996_u09F0_u09CD" horiz-adv-x="985" 
d="M841 750h175v-45h-130v-705q-20 0 -32.5 12.5t-12.5 32.5v432q0 21 -2.5 37.5t-9 32t-17.5 33t-28 41.5q-21 30 -36.5 46t-31.5 23.5t-36 8.5t-51 1q-64 0 -96.5 -28.5t-34.5 -97.5v-92q0 -14 6.5 -28t15.5 -14q0 23 16.5 38t39.5 15q28 0 45.5 -17.5t17.5 -48.5
q0 -33 -23.5 -52.5t-67.5 -19.5q-21 0 -42 8t-38.5 24.5t-28 42.5t-10.5 63v61q0 45 8 81.5t29.5 62t60.5 39t102 13.5q38 0 63 -5.5t44.5 -19t37 -36.5t41.5 -57q8 -11 14.5 -21.5t11.5 -20.5v160zM448 529q-7 12 -17 26q-8 12 -19 27t-22 32q-21 30 -35.5 47t-29 26
t-32.5 11t-46 2q-33 0 -53.5 -7t-33 -20.5t-18 -35t-6.5 -49.5q0 -10 4 -15.5t15 -5.5h43q28 0 52 -10t41.5 -27.5t27.5 -40t10 -46.5q0 -32 -10 -61.5t-42 -61.5l-35 -34h-99l98 95q3 4 10.5 12t14.5 18.5t12.5 22t5.5 23.5q0 21 -6.5 33t-18.5 18t-27.5 7.5t-33.5 1.5
h-132v51q0 39 5.5 72.5t24.5 58t55 38t96 13.5q36 0 58 -6.5t39 -20.5t33.5 -37.5t40.5 -57.5q4 -6 15 -21.5t22 -32t21 -31t13 -19.5z" />
    <glyph glyph-name="u0996_u09AC_u09CD" horiz-adv-x="964" 
d="M449 529q-8 12 -18 26q-8 12 -19 27t-22 32q-21 30 -35.5 47t-29 26t-32.5 11t-46 2q-33 0 -53.5 -7t-32.5 -20.5t-17.5 -35t-6.5 -49.5q-1 -10 3 -15.5t16 -5.5h43q28 0 52 -10t41.5 -27.5t27.5 -40t10 -46.5q0 -32 -10 -61.5t-43 -61.5l-34 -34h-99l97 95q4 4 11 12
t14.5 18.5t13 22t5.5 23.5q0 21 -6.5 33t-18.5 18t-27.5 7.5t-33.5 1.5h-133v51q0 39 6 72.5t24.5 58t54.5 38t96 13.5q36 0 58.5 -6.5t39.5 -20.5t33.5 -37.5t40.5 -57.5q4 -6 14.5 -21.5t22 -32t21 -31t12.5 -19.5zM985 705h-493v-312q25 28 61 62t77.5 63.5t87.5 49.5
t91 20h25q14 0 22 -3.5t20 -15.5l37 -37q-21 -22 -36.5 -44t-25 -56t-14 -85.5t-4.5 -132.5q0 -33 2.5 -66.5t7 -63t12 -52t16.5 -32.5h-21q-15 0 -25.5 25t-17 60t-9.5 71t-3 59v151q0 51 6 89t16 64h-8q-30 0 -64.5 -15.5t-69 -40t-67 -55t-57 -60.5t-39.5 -56t-15 -41
q-21 0 -35.5 14.5t-14.5 35.5v449h538v-45z" />
    <glyph glyph-name="u0997_afii61664_u09C1" horiz-adv-x="911" 
d="M942 750v-45h-130v-705q-21 0 -33 12.5t-12 32.5v26q0 28 -14 53.5t-43 54.5q-36 36 -77 60t-82.5 38.5t-79.5 20.5t-66 6v115q32 26 68 51.5t83 51.5q-68 4 -99.5 32t-31.5 91q0 29 10 49t26 32.5t36.5 18t41.5 5.5q30 0 49 -16.5t19 -39.5q0 -29 -15.5 -42.5
t-38.5 -13.5q-13 0 -28 11t-15 31q-5 0 -13.5 -7.5t-8.5 -24.5v-11q0 -43 20 -63.5t75 -20.5q9 0 24 2t24 6q14 6 33 14.5t38.5 15.5t37 12t27.5 5v142h175zM767 533q-11 0 -33 -8t-50.5 -20.5t-59.5 -28t-59.5 -31.5t-51.5 -31t-34 -26l-11 -11t-5 -13q0 -9 4 -12.5
t13 -5.5q40 -9 75.5 -24.5t65.5 -33t54 -36.5t41 -36q28 -27 51 -57v374zM441 573q-6 9 -15.5 20t-16.5 21q-21 30 -38.5 47t-35.5 26t-39 11t-49 2q-33 0 -53.5 -7t-33 -20.5t-18 -35t-6.5 -49.5q-1 -10 3 -15.5t16 -5.5h43q28 0 52 -10t41.5 -27.5t27.5 -40t10 -46.5
q0 -32 -10 -61.5t-42 -61.5l-35 -34h-99l97 95q4 4 11 12t14.5 18.5t13 22t5.5 23.5q0 21 -6.5 33t-18.5 18t-27.5 7.5t-33.5 1.5h-132v51q0 39 5.5 72.5t24.5 58t55 38t96 13.5q36 0 61 -6.5t46 -20.5t40.5 -37.5t43.5 -57.5q4 -6 12 -15.5t17.5 -21t18.5 -23.5t15 -22
q-11 -1 -22 2q-9 2 -19.5 8t-18.5 17z" />
    <glyph glyph-name="u0997_u09CD_u0997" horiz-adv-x="660" 
d="M694 705h-130v-705q-20 0 -32.5 12.5t-12.5 32.5v428q0 21 -2.5 37t-9.5 31.5t-18 32.5t-27 40q-21 30 -38 47t-36.5 26t-45 11t-63.5 2q-43 0 -69.5 -7t-41.5 -20.5t-21.5 -35t-7.5 -49.5q-2 -21 18 -21h93q28 0 52 -10.5t41.5 -27.5t27.5 -39.5t10 -46.5
q0 -32 -9.5 -61.5t-42.5 -62.5l-55 -54h-99l118 116q3 4 10.5 12t14.5 18.5t12.5 22t5.5 23.5q0 21 -6.5 33t-18 18t-27.5 7.5t-34 1.5h-182v50q0 40 6.5 73.5t28.5 58t64 38t112 13.5q46 0 75.5 -6.5t52 -21t41 -37.5t42.5 -57q9 -13 16 -24t13 -22v168h175v-45zM523 100
q11 -9 20 -20q8 -9 14.5 -20t6.5 -22v-37q-17 0 -31 9.5t-14 26.5v6q0 21 -11 33t-31 32q-16 16 -31.5 27t-33.5 18t-41 10t-53 3q-57 0 -79.5 -14.5t-22.5 -49.5v-7q10 5 21 5q21 0 35.5 -13t14.5 -36t-15 -37t-41 -14q-32 0 -48.5 23.5t-16.5 55.5v12q0 34 7 59t24 41
t46.5 23.5t73.5 7.5q37 0 63 -8t47.5 -23t43.5 -38t52 -53z" />
    <glyph glyph-name="u0997_u09CD_u09A6" horiz-adv-x="914" 
d="M944 750v-45h-130v-705q-21 0 -33 12.5t-12 32.5v32q0 28 -2 46t-7.5 31.5t-15.5 25.5t-25 27q-26 26 -44.5 44t-33.5 29q-10 8 -22.5 15t-23 11t-18 4t-7.5 -5q0 -35 -24 -59t-59 -24q-34 0 -58 24t-24 59t24 58.5t58 23.5h19t21 -2q2 11 3.5 29t1.5 45q0 28 -2.5 47
t-9 34t-17.5 28.5t-28 30.5t-33 29t-42 30q-18 13 -32 21.5t-30 13t-37 6t-54 1.5t-53.5 -7t-33 -20.5t-18 -35t-6.5 -49.5q0 -10 4 -15.5t15 -5.5h43q28 0 52 -10t41.5 -27.5t27.5 -40t10 -46.5q0 -32 -10 -61.5t-42 -61.5l-35 -34h-99l98 95q3 4 10.5 12t14.5 18.5
t12.5 22t5.5 23.5q0 21 -6.5 33t-18.5 18t-27.5 7.5t-33.5 1.5h-132v51q0 39 5.5 72.5t24.5 58t55 38t96 13.5q28 0 50 -4t40 -11.5t33 -17t30 -20.5v53h544zM769 705h-323q11 -9 22 -19q10 -8 20.5 -18t20.5 -19q12 -12 23 -24.5t19.5 -29t13.5 -37.5t5 -49v-140
q46 -25 92.5 -65.5t84.5 -78.5l11 -11t11 -12v503z" />
    <glyph glyph-name="u0997_u09CD_u09A7" horiz-adv-x="660" 
d="M694 750v-45h-130v-705q-20 0 -32.5 12.5t-12.5 32.5v428q0 21 -2.5 37t-9.5 31.5t-18 32.5t-27 40q-21 30 -38 47t-36.5 26t-45 11t-63.5 2q-43 0 -69.5 -7t-41.5 -20.5t-21.5 -35t-7.5 -49.5q-2 -21 18 -21h93q28 0 52 -10.5t41.5 -27.5t27.5 -39.5t10 -46.5
q0 -32 -9.5 -61.5t-42.5 -62.5l-55 -54h-99l118 116q3 4 10.5 12t14.5 18.5t12.5 22t5.5 23.5q0 21 -6.5 33t-18 18t-27.5 7.5t-34 1.5h-182v50q0 40 6.5 73.5t28.5 58t64 38t112 13.5q46 0 75.5 -6.5t52 -21t41 -37.5t42.5 -57q9 -13 16 -24t13 -22v168h175zM564 57v-27
q-33 0 -43 31q-4 13 -13 23.5t-26 18t-43.5 11t-65.5 3.5h-188q-56 0 -94.5 11t-62 34.5t-33.5 60t-10 87.5v70q12 -2 21.5 -9.5t9.5 -24.5v-43q0 -29 8 -52t27.5 -39.5t52 -25.5t81.5 -9h177q30 0 51.5 -4.5t40.5 -15t38.5 -28.5t46.5 -45l11 -11t8 -9q4 -4 6 -7z" />
    <glyph glyph-name="u0997_u09CD_u09A7_u09AC_u09CD" horiz-adv-x="660" 
d="M694 705h-130v-705q-20 0 -32.5 12.5t-12.5 32.5v428q0 21 -2.5 37t-9.5 31.5t-18 32.5t-27 40q-21 30 -38 47t-36.5 26t-45 11t-63.5 2q-43 0 -69.5 -7t-41.5 -20.5t-21.5 -35t-7.5 -49.5q-2 -21 18 -21h93q28 0 52 -10.5t41.5 -27.5t27.5 -39.5t10 -46.5
q0 -32 -9.5 -61.5t-42.5 -62.5l-55 -54h-99l118 116q3 4 10.5 12t14.5 18.5t12.5 22t5.5 23.5q0 21 -6.5 33t-18 18t-27.5 7.5t-34 1.5h-182v50q0 40 6.5 73.5t28.5 58t64 38t112 13.5q46 0 75.5 -6.5t52 -21t41 -37.5t42.5 -57q9 -13 16 -24t13 -22v168h175v-45zM521 144
q11 -17 21 -33q8 -14 15 -29.5t7 -26.5v-54q-17 0 -31 9.5t-14 26.5v38q0 13 -5.5 27.5t-15.5 26.5t-24.5 20t-31.5 8q-38 0 -55.5 -10t-17.5 -48v-49q-15 0 -26.5 8t-11.5 19q0 13 -5.5 27t-17.5 25t-30.5 18.5t-45.5 7.5q-44 0 -61 -12t-17 -41v-7q10 5 21 5q20 0 35 -13
t15 -36t-15 -37t-42 -14q-31 0 -47.5 23.5t-16.5 55.5v12q0 27 6 48.5t20 36.5t37.5 22.5t58.5 7.5q32 0 63.5 -19.5t46.5 -48.5q0 32 20.5 46.5t46.5 14.5h23q15 0 29 -6t26.5 -14.5t22.5 -18t17 -16.5z" />
    <glyph glyph-name="u0997_u09CD_u09A7_u09F0_u09CD" horiz-adv-x="624" 
d="M661 750v-45h-130v-750q-17 0 -31 10t-14 27v6q0 21 -11.5 33t-31.5 32q-16 16 -31.5 27t-33.5 18t-40.5 10t-53.5 3q-57 0 -79.5 -14.5t-22.5 -50.5v-6q12 5 22 5q20 0 35 -13t15 -36t-15 -37t-42 -14q-31 0 -47.5 23.5t-16.5 55.5v11q0 35 7 60t24 41t46 23.5t73 7.5
q37 0 62.5 -7.5t47 -22.5t43 -37t50.5 -51q0 15 -2.5 27t-9.5 24.5t-20.5 28t-36.5 38.5q-33 33 -72 57t-79.5 39.5t-80 23t-72.5 7.5v105l115 103q-78 1 -122.5 38.5t-44.5 120.5v34h-90v45h690zM193 344q68 -15 131 -54t119 -96q23 -24 43 -46v557h-350q-3 -8 -5 -17.5
t-2 -16.5q0 -28 4 -51.5t15 -40.5t30.5 -26.5t51.5 -9.5q20 0 30.5 3.5t15.5 8.5l65 58l47 -51q-54 -47 -97 -85l-36 -32t-33 -29t-25 -22t-12 -11q-6 -7 -9 -11.5t-3 -10.5q0 -8 4.5 -11t15.5 -6z" />
    <glyph glyph-name="u0997_u09CD_u09A8" horiz-adv-x="624" 
d="M661 750v-45h-130v-705q-21 0 -33 11.5t-12 31.5q0 7 -10.5 14.5t-29.5 14t-46 11t-60 4.5h-159q-56 0 -94.5 11t-62 34.5t-33.5 60t-10 87.5v70q12 -2 21.5 -9.5t9.5 -24.5v-43q0 -29 8.5 -52t28 -39.5t52 -25.5t80.5 -9h147q27 0 47.5 -3.5t37.5 -12t34 -22t38 -34.5
q-1 12 -4.5 21.5t-11 21t-20 25.5t-32.5 34q-33 33 -72 57t-79.5 39.5t-80 23t-72.5 7.5v105l115 103q-78 1 -122.5 38.5t-44.5 120.5v34h-90v45h690zM193 344q68 -15 131 -54t119 -96q23 -24 43 -46v557h-350q-3 -8 -5 -17.5t-2 -16.5q0 -28 4 -51.5t15 -40.5t30.5 -26.5
t51.5 -9.5q20 0 30.5 3.5t15.5 8.5l65 58l47 -51q-54 -47 -97 -85l-36 -32t-33 -29t-25 -22t-12 -11q-6 -7 -9 -11.5t-3 -10.5q0 -8 4.5 -11t15.5 -6z" />
    <glyph glyph-name="u0997_u09CD_u09AE" horiz-adv-x="1239" 
d="M927 705v-75q47 0 93.5 -21t84 -54t61 -73t23.5 -77v-37q0 -35 -9.5 -60t-23.5 -41t-32 -23.5t-34 -7.5q-28 0 -46 15.5t-18 41.5q0 23 15.5 39.5t38.5 16.5q18 0 33 -11.5t15 -28.5q12 0 21 16.5t9 42.5q0 37 -21 72t-54.5 62t-74.5 43t-81 16v-561q-21 0 -33 12.5
t-12 32.5v34q0 27 -14 49t-43 51q-38 38 -79 66.5t-81 47t-77 27.5t-68 9v122q30 30 76 61t97 57t101 43t88 18v75h-362v45h732v-45h-325zM882 561q-27 -1 -66.5 -14.5t-81.5 -33.5t-80 -44.5t-60 -46.5q-6 -6 -11 -13t-5 -15q0 -7 3 -13t14 -10q89 -35 145.5 -77t90.5 -76
q30 -30 51 -58v401zM466 580q27 -16 49 -33q19 -15 34.5 -34t15.5 -41v-67q0 -39 -11.5 -71.5t-36 -56.5t-62 -37.5t-90.5 -13.5q-71 0 -114.5 27.5t-68.5 69t-38.5 90.5t-22.5 93q-5 17 -10.5 45t-10.5 54q-5 31 -12 65q10 0 21 -4.5t13 -15.5q3 -16 5 -26.5t4.5 -21
t5.5 -24t7 -36.5q12 -51 26 -96t38 -78t61.5 -52t95.5 -19q81 0 117 29t36 84v57q0 18 -1.5 28t-3.5 15t-4.5 6t-5.5 1q-6 0 -8 -3t-4 -5q-14 -20 -28 -38.5t-28 -32.5t-29 -22.5t-32 -8.5h-41q-41 0 -63.5 24.5t-22.5 72.5v204h2v42h92q44 0 71.5 -28t27.5 -69
q0 -25 -10 -42t-25 -27t-33 -14t-35 -4h-48v-62q0 -32 9 -51t36 -19q16 0 32.5 13t33.5 34.5t33.5 47t32.5 51.5zM289 708v-114h48q25 0 41 12.5t16 46.5q0 31 -11 43t-36 12h-58z" />
    <glyph glyph-name="u0997_u09F0_u09CD" horiz-adv-x="1208" 
d="M898 705v-97h29q37 0 74 -10.5t66.5 -32t47.5 -54t18 -75.5v-50q0 -31 -9 -54t-24 -38t-34 -22.5t-39 -7.5v1q-23 1 -40.5 17t-17.5 39t16.5 39.5t39.5 16.5q18 0 32 -9.5t21 -25.5q11 6 17.5 21t6.5 38q0 42 -13 68.5t-37 42.5t-57.5 22t-73.5 6h-23v-540q-19 0 -32 10
t-13 30v98q0 18 -2.5 29.5t-9 21t-17 19.5t-25.5 25q-5 6 -8.5 9l-7 6t-7.5 7t-10 11q-16 16 -35 27.5t-36 11.5q0 -34 -16.5 -56t-50.5 -22q-28 0 -48 20t-20 48t20 47.5t48 19.5h16.5t13.5 -1v64q0 22 -10.5 43t-27 37t-35.5 25.5t-35 9.5h-51q-21 0 -35.5 14.5
t-14.5 35.5v18h73v33q0 32 -13.5 48t-31.5 16h-32v45h784v-45h-331zM853 705h-298q6 -21 6 -49v-48q12 0 25 -5t21 -12.5t19 -16t18 -15.5q12 -12 21.5 -23.5t16 -26t10.5 -32.5t4 -42v-82q21 -5 43.5 -21.5t32.5 -26.5l15 -15t25.5 -26t25.5 -26t15 -16v318h-85
q-21 0 -35.5 14.5t-14.5 35.5v18h135v97zM447 580q27 -16 49 -33q19 -15 34.5 -34t15.5 -41v-67q0 -39 -11.5 -71.5t-36 -56.5t-62 -37.5t-90.5 -13.5q-71 0 -114.5 27.5t-68.5 69t-38.5 90.5t-22.5 93q-5 17 -10.5 45t-10.5 54q-5 31 -12 65q10 0 21 -4.5t13 -15.5
q3 -16 5 -26.5t4.5 -21t5.5 -24t7 -36.5q12 -51 26 -96t38 -78t61.5 -52t95.5 -19q81 0 117 29t36 84v57q0 18 -1.5 28t-3.5 15t-4.5 6t-5.5 1q-6 0 -8 -3t-4 -5q-14 -20 -28 -38.5t-28 -32.5t-29 -22.5t-32 -8.5h-41q-41 0 -63.5 24.5t-22.5 72.5v204h2v42h92
q44 0 71.5 -28t27.5 -69q0 -25 -10 -42t-25 -27t-33 -14t-35 -4h-48v-62q0 -32 9 -51t36 -19q16 0 32.5 13t33.5 34.5t33.5 47t32.5 51.5zM270 708v-114h48q25 0 41 12.5t16 46.5q0 31 -11 43t-36 12h-58z" />
    <glyph glyph-name="u0997_u09F0_u09CD_u09C1" horiz-adv-x="1062" 
d="M1089 750v-45h-130v-705q-21 0 -33 12.5t-12 32.5v29q-3 23 -17.5 45t-50.5 59q-33 33 -75.5 56.5t-87.5 39t-88 23t-76 7.5v143q37 0 81 8.5t81.5 26.5t63 45t25.5 63q0 20 -1.5 38t-15.5 32l-19 19q-1 -21 -15.5 -41.5t-36.5 -36t-49 -25t-53 -9.5q-52 0 -79 20.5
t-27 58.5q0 23 17 40.5t40 17.5q31 0 43 -18.5t12 -47.5q18 0 34.5 6.5t28.5 17.5t19.5 25t7.5 30v33q17 0 27 -3.5t24 -16.5q13 -14 32 -33l30 -30t21 -30t10 -42v-52q0 -34 -21 -60.5t-53.5 -46t-70.5 -33t-72 -20.5q-16 -5 -16 -19q0 -12 9 -16t18 -7q29 -9 61.5 -22
t66 -30.5t66.5 -40.5t63 -53q12 -12 23 -24t20 -25v604h175zM447 580q27 -16 49 -33q19 -15 34.5 -34t15.5 -41v-67q0 -39 -11.5 -71.5t-36 -56.5t-62 -37.5t-90.5 -13.5q-71 0 -114.5 27.5t-68.5 69t-38.5 90.5t-22.5 93q-5 17 -10.5 45t-10.5 54q-5 31 -12 65
q10 0 21 -4.5t13 -15.5q3 -16 5 -26.5t4.5 -21t5.5 -24t7 -36.5q12 -51 26 -96t38 -78t61.5 -52t95.5 -19q81 0 117 29t36 84v57q0 18 -1.5 28t-3.5 15t-4.5 6t-5.5 1q-6 0 -8 -3t-4 -5q-14 -20 -28 -38.5t-28 -32.5t-29 -22.5t-32 -8.5h-41q-41 0 -63.5 24.5t-22.5 72.5
v204h2v42h92q44 0 71.5 -28t27.5 -69q0 -25 -10 -42t-25 -27t-33 -14t-35 -4h-48v-62q0 -32 9 -51t36 -19q16 0 32.5 13t33.5 34.5t33.5 47t32.5 51.5zM270 708v-114h48q25 0 41 12.5t16 46.5q0 31 -11 43t-36 12h-58z" />
    <glyph glyph-name="u0997_u09F0_u09CD_u09C2" horiz-adv-x="1062" 
d="M1074 705h-130v-705q-21 0 -33 12.5t-12 32.5v429q0 21 -3 36.5t-10 31t-18 32.5t-27 40q-21 30 -38 47t-36 26t-44.5 11t-63.5 2q-43 0 -69.5 -7t-42 -20.5t-22 -35t-7.5 -49.5q-1 -10 3 -15.5t16 -5.5h93q28 0 52 -10t41.5 -27.5t27.5 -40t10 -46.5q0 -32 -10 -61.5
t-43 -61.5l-54 -54h-99l117 115q4 4 11 12t14.5 18.5t13 22t5.5 23.5q0 21 -6.5 33t-18.5 18t-27.5 7.5t-33.5 1.5h-182v51q0 39 6.5 72.5t28.5 58t63.5 38t112.5 13.5q46 0 75.5 -6.5t51.5 -20.5t41 -37.5t43 -57.5q8 -13 15.5 -24t13.5 -22v168h175v-45zM447 580
q27 -16 49 -33q19 -15 34.5 -34t15.5 -41v-67q0 -39 -11.5 -71.5t-36 -56.5t-62 -37.5t-90.5 -13.5q-71 0 -114.5 27.5t-68.5 69t-38.5 90.5t-22.5 93q-5 17 -10.5 45t-10.5 54q-5 31 -12 65q10 0 21 -4.5t13 -15.5q3 -16 5 -26.5t4.5 -21t5.5 -24t7 -36.5q12 -51 26 -96
t38 -78t61.5 -52t95.5 -19q81 0 117 29t36 84v57q0 18 -1.5 28t-3.5 15t-4.5 6t-5.5 1q-6 0 -8 -3t-4 -5q-14 -20 -28 -38.5t-28 -32.5t-29 -22.5t-32 -8.5h-41q-41 0 -63.5 24.5t-22.5 72.5v204h2v42h92q44 0 71.5 -28t27.5 -69q0 -25 -10 -42t-25 -27t-33 -14t-35 -4h-48
v-62q0 -32 9 -51t36 -19q16 0 32.5 13t33.5 34.5t33.5 47t32.5 51.5zM270 708v-114h48q25 0 41 12.5t16 46.5q0 31 -11 43t-36 12h-58z" />
    <glyph glyph-name="u0997_u09CD_u09B2" horiz-adv-x="1040" 
d="M1067 705h-130v-705q-21 0 -33 12t-12 32v13q0 16 -2 28t-9 25t-20.5 28.5t-36.5 39.5q-33 33 -72.5 56.5t-80 39t-80 23t-72.5 7.5v105l126 113q-79 1 -121 39t-42 110v79h585v-45zM892 705h-335q-3 -8 -5 -17t-2 -17q0 -24 3 -45.5t13.5 -37.5t29.5 -25t51 -9
q20 0 30 3t15 8l55 48l48 -51q-54 -47 -97 -85l-36 -32t-33 -29t-25 -22t-12 -11q-7 -7 -10 -11.5t-3 -10.5q0 -8 4.5 -11t16.5 -5q67 -15 130 -54.5t119 -95.5q12 -12 22.5 -23.5t20.5 -23.5v557zM447 580q27 -16 49 -33q19 -15 34.5 -34t15.5 -41v-67q0 -39 -11.5 -71.5
t-36 -56.5t-62 -37.5t-90.5 -13.5q-71 0 -114.5 27.5t-68.5 69t-38.5 90.5t-22.5 93q-5 17 -10.5 45t-10.5 54q-5 31 -12 65q10 0 21 -4.5t13 -15.5q3 -16 5 -26.5t4.5 -21t5.5 -24t7 -36.5q12 -51 26 -96t38 -78t61.5 -52t95.5 -19q81 0 117 29t36 84v57q0 18 -1.5 28
t-3.5 15t-4.5 6t-5.5 1q-6 0 -8 -3t-4 -5q-14 -20 -28 -38.5t-28 -32.5t-29 -22.5t-32 -8.5h-41q-41 0 -63.5 24.5t-22.5 72.5v204h2v42h92q44 0 71.5 -28t27.5 -69q0 -25 -10 -42t-25 -27t-33 -14t-35 -4h-48v-62q0 -32 9 -51t36 -19q16 0 32.5 13t33.5 34.5t33.5 47
t32.5 51.5zM270 708v-114h48q25 0 41 12.5t16 46.5q0 31 -11 43t-36 12h-58z" />
    <glyph glyph-name="u0997_u09AC_u09CD" horiz-adv-x="1047" 
d="M1068 750v-45h-130v-705q-21 0 -33 12.5t-12 32.5v32q0 28 -2 46t-7.5 31.5t-15 25.5t-24.5 27q-26 26 -45 44t-34 29q-10 8 -22 15t-23 11t-18.5 4t-7.5 -5q0 -35 -24 -59t-59 -24q-34 0 -58 24t-24 59t24 58.5t58 23.5h19.5t20.5 -2q3 11 4 29t1 45q0 28 -2.5 47t-9 34
t-17.5 28.5t-28 30.5q-26 26 -55.5 54t-60.5 42v55h585zM893 705h-325q10 -9 21 -19q9 -8 20 -18t21 -19q12 -12 23.5 -24.5t20.5 -29t14.5 -37.5t5.5 -49v-140q46 -25 92.5 -65.5t84.5 -78.5l11 -11t11 -12v503zM447 580q27 -16 49 -33q19 -15 34.5 -34t15.5 -41v-67
q0 -39 -11.5 -71.5t-36 -56.5t-62 -37.5t-90.5 -13.5q-71 0 -114.5 27.5t-68.5 69t-38.5 90.5t-22.5 93q-5 17 -10.5 45t-10.5 54q-5 31 -12 65q10 0 21 -4.5t13 -15.5q3 -16 5 -26.5t4.5 -21t5.5 -24t7 -36.5q12 -51 26 -96t38 -78t61.5 -52t95.5 -19q81 0 117 29t36 84v57
q0 18 -1.5 28t-3.5 15t-4.5 6t-5.5 1q-6 0 -8 -3t-4 -5q-14 -20 -28 -38.5t-28 -32.5t-29 -22.5t-32 -8.5h-41q-41 0 -63.5 24.5t-22.5 72.5v204h2v42h92q44 0 71.5 -28t27.5 -69q0 -25 -10 -42t-25 -27t-33 -14t-35 -4h-48v-62q0 -32 9 -51t36 -19q16 0 32.5 13t33.5 34.5
t33.5 47t32.5 51.5zM270 708v-114h48q25 0 41 12.5t16 46.5q0 31 -11 43t-36 12h-58z" />
    <glyph glyph-name="u0998_u09CD_u09A8" horiz-adv-x="927" 
d="M461 705v-42q0 -25 11.5 -39.5t20.5 -22.5q23 -24 40 -38t32 -21.5t31 -9.5t38 -2h108q1 0 18.5 -10t38 -29t37.5 -45t17 -59v-44q0 -20 -12 -48.5t-33 -59.5t-48 -61.5t-57.5 -55t-61.5 -40t-60 -15.5h-75q-36 0 -63 24t-27 73v160q-16 -23 -35 -44.5t-40 -38.5t-43 -27
t-43 -10h-60q-15 0 -29.5 5t-26 14.5t-18.5 24t-7 34.5v427h-132v45h965v-45h-486zM634 480q-35 0 -58 7.5t-41 21t-35 33t-39 42.5v-425q0 -19 6.5 -28.5t17 -13.5t23 -4h24.5q21 0 48 12.5t55 34t54.5 49t47.5 58t34 61.5t13 58q0 57 -17.5 75.5t-56.5 18.5h-76zM297 525
q-28 0 -46.5 6.5t-33 18.5t-27.5 28t-31 34v-330q0 -15 3 -22.5t8.5 -11t13 -3.5h17.5q25 0 58.5 21t63.5 53t50.5 69.5t20.5 70.5q0 23 -4 36t-12 20t-19.5 8.5t-27.5 1.5h-34zM159 705v-25q0 -20 8.5 -31t16.5 -19q19 -19 32.5 -30t25.5 -17t25 -7.5t30 -1.5h74
q1 0 14.5 -8t30.5 -23v162h-257z" />
    <glyph glyph-name="u0998_u09F0_u09CD" horiz-adv-x="927" 
d="M460 705v-14q0 -12 11 -26.5t19 -22.5q5 -5 13 -14t20 -18t28 -15.5t38 -6.5h147q29 0 56.5 -16t49 -40t34.5 -52.5t13 -53.5v-33q0 -78 -46 -128.5t-127 -73.5q-10 -3 -10 -8t8 -10q17 -10 35 -25t38 -35q12 -12 22 -22.5t25.5 -27t40 -43t65.5 -70.5q-19 0 -31 0.5
t-25 13.5q-7 6 -11 10.5t-7.5 8t-7 7.5t-8.5 10q-38 40 -66 66.5t-51.5 43.5t-45 27.5t-45.5 17.5q-15 4 -33.5 7t-37.5 5t-38 3t-35 2q-32 2 -41.5 16t-9.5 33v29q11 -2 33 -5t50 -3h64q58 0 103.5 12.5t77 35t48 52.5t16.5 66v18q0 42 -12.5 65t-33 34t-47.5 13t-56 2
q12 -12 19.5 -23t7.5 -20v-35q0 -24 -16 -49.5t-41.5 -46t-56.5 -33.5t-61 -13h-60q-11 0 -25.5 6t-25.5 19q-15 -26 -35.5 -51.5t-44 -46.5t-48.5 -34t-49 -13h-60q-15 0 -29.5 5t-26 14.5t-18.5 24t-7 34.5v427h-131v45h970v-45h-492zM297 525q-29 0 -47.5 6.5t-32.5 18.5
t-27.5 28t-31.5 34v-330q0 -15 3 -22.5t8.5 -11t13 -3.5h17.5q25 0 58.5 21t63.5 53t51 69.5t21 70.5q0 23 -4 36t-12 20t-20 8.5t-28 1.5h-33zM596 536q-28 0 -47.5 8.5t-34.5 21.5t-27.5 28.5t-26.5 29.5v-159v-5v-66q0 -19 8.5 -24t19.5 -5q27 0 55.5 11t52 28t38 38
t14.5 42q0 32 -8 42t-22 10h-22zM158 705v-25q0 -20 9 -31t16 -19q19 -19 32.5 -30t25.5 -17t25 -7.5t31 -1.5h73q1 0 14.5 -8t30.5 -22v161h-257z" />
    <glyph glyph-name="u0998_u09AC_u09CD" horiz-adv-x="927" 
d="M460 705v-14q0 -12 11 -26.5t19 -22.5q5 -5 13 -14t20 -18t28 -15.5t38 -6.5h147q29 0 56.5 -16t49 -40t34.5 -52.5t13 -53.5v-33q0 -78 -46 -128.5t-127 -73.5q-10 -3 -10 -8t8 -10q17 -10 35 -25t38 -35q12 -12 22 -22.5t25.5 -27t40 -43t65.5 -70.5q-19 0 -31 0.5
t-25 13.5q-7 6 -11 10.5t-7.5 8t-7 7.5t-8.5 10l-41 42v-208q-17 0 -31 9.5t-14 26.5q0 6 -13 20t-41 28.5t-73 25.5t-108 11v94q12 12 29.5 24.5t38 24.5t43 22.5t44.5 18.5q-10 5 -20.5 8.5t-21.5 7.5q-15 4 -33.5 7t-37.5 5t-38 3t-35 2q-32 2 -41.5 16t-9.5 33v29
q11 -2 33 -5t50 -3h64q58 0 103.5 12.5t77 35t48 52.5t16.5 66v18q0 42 -12.5 65t-33 34t-47.5 13t-56 2q12 -12 19.5 -23t7.5 -20v-35q0 -24 -16 -49.5t-41.5 -46t-56.5 -33.5t-61 -13h-60q-11 0 -25.5 6t-25.5 19q-15 -26 -35.5 -51.5t-44 -46.5t-48.5 -34t-49 -13h-60
q-15 0 -29.5 5t-26 14.5t-18.5 24t-7 34.5v427h-131v45h970v-45h-492zM297 525q-29 0 -47.5 6.5t-32.5 18.5t-27.5 28t-31.5 34v-330q0 -15 3 -22.5t8.5 -11t13 -3.5h17.5q25 0 58.5 21t63.5 53t51 69.5t21 70.5q0 23 -4 36t-12 20t-20 8.5t-28 1.5h-33zM596 536
q-28 0 -47.5 8.5t-34.5 21.5t-27.5 28.5t-26.5 29.5v-230q0 -19 8.5 -24t19.5 -5q27 0 55.5 11t52 28t38 38t14.5 42q0 32 -8 42t-22 10h-22zM158 705v-25q0 -20 9 -31t16 -19q19 -19 32.5 -30t25.5 -17t25 -7.5t31 -1.5h73q1 0 14.5 -8t30.5 -22v161h-257zM764 84l-7 6
q-17 -1 -40.5 -8t-47.5 -17t-46 -23t-37 -26l-6.5 -6.5t-1.5 -6.5q0 -7 5.5 -8.5t10.5 -3.5q48 -9 94.5 -29t75.5 -49v171z" />
    <glyph glyph-name="u0999_u09CD_u0995" horiz-adv-x="927" 
d="M460 705v-14q0 -12 11 -26.5t19 -22.5q5 -5 13 -14t20 -18t28 -15.5t38 -6.5h147q29 0 56.5 -16t49 -40t34.5 -52.5t13 -53.5v-33q0 -78 -46 -128.5t-127 -73.5q-10 -3 -10 -8t8 -10q17 -10 35 -25t38 -35q12 -12 22 -22.5t25.5 -27t40 -43t65.5 -70.5q-19 0 -31 0.5
t-25 13.5q-7 6 -11 10.5t-7.5 8t-7 7.5t-8.5 10l-41 42v-83q-22 0 -33 13q-11 10 -22.5 16t-29 8.5t-42 3t-60.5 0.5h-99q-50 0 -86.5 7.5t-60.5 26t-35.5 49.5t-11.5 77v60q12 -2 21.5 -10t9.5 -24v-34q0 -29 11 -46.5t32 -28t51 -14t69 -3.5h104q25 0 41.5 -1.5t30.5 -5.5
t28.5 -12.5t36.5 -21.5v65q-35 31 -62.5 46t-59.5 25q-15 4 -33.5 7t-37.5 5t-38 3t-35 2q-32 2 -41.5 16t-9.5 33v29q11 -2 33 -5t50 -3h64q58 0 103.5 12.5t77 35t48 52.5t16.5 66v18q0 42 -12.5 65t-33 34t-47.5 13t-56 2q12 -12 19.5 -23t7.5 -20v-35q0 -24 -16 -49.5
t-41.5 -46t-56.5 -33.5t-61 -13h-60q-11 0 -25.5 6t-25.5 19q-15 -26 -35.5 -51.5t-44 -46.5t-48.5 -34t-49 -13h-60q-15 0 -29.5 5t-26 14.5t-18.5 24t-7 34.5v427h-131v45h970v-45h-492zM297 525q-29 0 -47.5 6.5t-32.5 18.5t-27.5 28t-31.5 34v-330q0 -15 3 -22.5
t8.5 -11t13 -3.5h17.5q25 0 58.5 21t63.5 53t51 69.5t21 70.5q0 23 -4 36t-12 20t-20 8.5t-28 1.5h-33zM596 536q-28 0 -47.5 8.5t-34.5 21.5t-27.5 28.5t-26.5 29.5v-159v-5v-35v-5v-26q0 -19 8.5 -24t19.5 -5q27 0 55.5 11t52 28t38 38t14.5 42q0 32 -8 42t-22 10h-22z
M370 574q1 0 14.5 -8t30.5 -22v161h-257v-25q0 -20 9 -31t16 -19q19 -19 32.5 -30t25.5 -17t25 -7.5t31 -1.5h73z" />
    </font>
</defs>
</svg>
